<svg id="Layer_1" height="512" viewBox="0 0 512 512" width="512" xmlns="http://www.w3.org/2000/svg" data-name="Layer 1"><path d="m380.34 160h-248.68a114.43 114.43 0 0 0 -114.66 114.39v115.89a11.686 11.686 0 0 0 11.47 11.72h455.06a11.686 11.686 0 0 0 11.47-11.72v-115.89a114.43 114.43 0 0 0 -114.66-114.39z" fill="#748279"/><path d="m158 160v63.26a34.81 34.81 0 0 0 34.54 34.74h126.92a34.81 34.81 0 0 0 34.54-34.74v-63.26z" fill="#6d7486"/><path d="m216.26 189.45h79.48v23.26h-79.48z" fill="#c6e02d"/><path d="m333.01 160.73h-20.59a56.42 56.42 0 1 0 -112.84 0h-20.59c.11-42.59 34.62-77.22 77.01-77.22s76.9 34.63 77.01 77.22z" fill="#748279"/><path d="m382 402h71v27h-71z" fill="#6d7486"/><path d="m436.58 401.52v.23h-38.12v-126.82a19.06 19.06 0 1 1 38.12 0z" fill="#c6e02d"/><path d="m59 402h71v27h-71z" fill="#6d7486"/><path d="m113.54 401.52v.23h-38.12v-126.82a19.06 19.06 0 1 1 38.12 0z" fill="#c6e02d"/><path d="m47 390.28v-115.89a114.43 114.43 0 0 1 114.66-114.39h-30a114.43 114.43 0 0 0 -114.66 114.39v115.89a11.686 11.686 0 0 0 11.47 11.72h30a11.686 11.686 0 0 1 -11.47-11.72z" fill="#93a398"/><g fill="#f4f8fc"><path d="m42.258 381.2a6 6 0 0 1 -6-6v-69.663a6 6 0 0 1 12 0v69.663a6 6 0 0 1 -6 6z"/><path d="m42.258 291.046a6 6 0 0 1 -6-6v-5.357a6 6 0 0 1 12 0v5.357a6 6 0 0 1 -6 6z"/></g></svg>