<svg id="Layer_1" height="512" viewBox="0 0 512 512" width="512" xmlns="http://www.w3.org/2000/svg" data-name="Layer 1"><path d="m466.96 44.42a96.231 96.231 0 0 1 0 135.8l-63.83 64.02-135.4-135.8-.01-.01 63.83-64.01a95.555 95.555 0 0 1 135.41 0z" fill="#f7ceb0"/><path d="m267.73 108.44-.01-.01-158.85 159.33 135.4 135.8.01.01 158.85-159.33z" fill="#e2b8b3"/><path d="m244.28 403.57-63.83 64.01a95.888 95.888 0 0 1 -135.41-135.8l63.83-64.02 135.4 135.8z" fill="#f7ceb0"/><g fill="#c9a49f"><path d="m350.44 232.02a10.66 10.66 0 1 1 -15.05 0 10.692 10.692 0 0 1 15.05 0z"/><path d="m316 266.55a10.66 10.66 0 1 1 -15.05 0 10.683 10.683 0 0 1 15.05 0z"/><path d="m315.17 196.65a10.66 10.66 0 1 1 -15.04.01 10.683 10.683 0 0 1 15.04-.01z"/><path d="m281.57 301.08a10.66 10.66 0 1 1 -15.05.01 10.713 10.713 0 0 1 15.05-.01z"/><path d="m280.74 231.19a10.656 10.656 0 1 1 -15.05 0 10.692 10.692 0 0 1 15.05 0z"/><path d="m279.91 161.29a10.656 10.656 0 1 1 -15.04 0 10.683 10.683 0 0 1 15.04 0z"/><path d="m247.14 335.62a10.656 10.656 0 1 1 -15.05 0 10.692 10.692 0 0 1 15.05 0z"/><path d="m246.31 265.72a10.656 10.656 0 1 1 -15.05 0 10.7 10.7 0 0 1 15.05 0z"/><path d="m245.48 195.82a10.66 10.66 0 1 1 -15.05 0 10.692 10.692 0 0 1 15.05 0z"/><path d="m211.88 300.25a10.66 10.66 0 1 1 -15.05.01 10.692 10.692 0 0 1 15.05-.01z"/><path d="m211.05 230.35a10.66 10.66 0 1 1 -15.05.01 10.713 10.713 0 0 1 15.05-.01z"/><path d="m176.62 264.89a10.66 10.66 0 1 1 -15.05 0 10.692 10.692 0 0 1 15.05 0z"/></g><path d="m287.7 128.464 63.85-64.044a95.563 95.563 0 0 1 124.56-9.371 95.631 95.631 0 0 0 -144.56-10.629l-63.83 64.01.01.01z" fill="#ffe1ca"/><path d="m287.695 128.464-19.965-20.024-.01-.01-158.85 159.33 19.971 20.03z" fill="#f7d0cb"/><path d="m65.04 351.78 63.8-63.99-19.97-20.03-63.83 64.02a96.178 96.178 0 0 0 10.85 145.171 96.245 96.245 0 0 1 9.15-125.171z" fill="#ffe1ca"/><path d="m113.016 441.851a5.979 5.979 0 0 1 -4.249-1.764l-35.549-35.653a6 6 0 1 1 8.5-8.473l35.549 35.653a6 6 0 0 1 -4.249 10.237z" fill="#cca68b"/><path d="m90.9 451.358a5.978 5.978 0 0 1 -4.248-1.764l-22.913-22.976a6 6 0 1 1 8.5-8.473l22.909 22.977a6 6 0 0 1 -4.248 10.236z" fill="#cca68b"/><path d="m435.323 118.6a5.982 5.982 0 0 1 -4.249-1.763l-35.548-35.659a6 6 0 1 1 8.5-8.472l35.549 35.653a6 6 0 0 1 -4.249 10.236z" fill="#cca68b"/><path d="m444.8 96.411a5.978 5.978 0 0 1 -4.248-1.764l-22.907-22.977a6 6 0 1 1 8.5-8.472l22.909 22.976a6 6 0 0 1 -4.254 10.237z" fill="#cca68b"/><path d="m301.5 117.537a6 6 0 0 1 -4.242-10.243l44.24-44.24a6 6 0 0 1 8.486 8.485l-44.242 44.241a5.984 5.984 0 0 1 -4.242 1.757z" fill="#f4f8fc"/><path d="m360.229 58.808a6 6 0 0 1 -4.243-10.243l3.788-3.788a6 6 0 0 1 8.486 8.485l-3.789 3.788a5.979 5.979 0 0 1 -4.242 1.758z" fill="#f4f8fc"/></svg>