<svg id="Layer_1" height="512" viewBox="0 0 512 512" width="512" xmlns="http://www.w3.org/2000/svg" data-name="Layer 1"><path d="m341.36 387.74v93.41h-23.64v-93.41-.44h23.64z" fill="#e1b7a3"/><path d="m195.3 387.74v93.41h-23.64v-93.41-.44h23.64z" fill="#e1b7a3"/><path d="m374 31h28v450h-28z" fill="#6d7486"/><path d="m110 31h28v450h-28z" fill="#6d7486"/><path d="m485.59 155h-88.81l-33.08-16.57a20.976 20.976 0 0 0 -23.16 2.885l-37.96 32.847-42.81-18.551a9.5 9.5 0 0 0 -7.54 0l-42.81 18.537-37.96-32.872a20.967 20.967 0 0 0 -23.16-2.84l-33.08 16.564h-88.81a9.262 9.262 0 0 0 -6.65 2.67 9.657 9.657 0 0 0 -2.76 6.785 9.522 9.522 0 0 0 9.41 9.545h91.04a9.717 9.717 0 0 0 4.22-1.17l35.08-17.56a2.076 2.076 0 0 1 2.31.245l40.46 35.017a13.733 13.733 0 0 0 14.39 2.2l42.09-18.232 42.09 18.227a13.729 13.729 0 0 0 14.39-2.212l40.46-35.041a2.084 2.084 0 0 1 2.31-.29l35.08 17.65a9.717 9.717 0 0 0 4.22 1.17h91.04a9.5 9.5 0 0 0 6.65-2.94 9.4 9.4 0 0 0 -6.65-16.064z" fill="#c3d0e0"/><path d="m352.37 362.17v4.97h-191.72v-4.97a26.569 26.569 0 0 1 26.56-26.58h138.6a26.569 26.569 0 0 1 26.56 26.58z" fill="#5fa8ed"/><path d="m354.585 367h-195.975c-2.25 0-3.61 1.97-3.61 4.22v14.01a3.451 3.451 0 0 0 3.61 3.77h195.8a3.436 3.436 0 0 0 3.59-3.77v-14.01c0-2.25-1.165-4.22-3.415-4.22z" fill="#c79a83"/><path d="m217.21 335.59h-30a26.569 26.569 0 0 0 -26.56 26.58v4.97h30v-4.97a26.569 26.569 0 0 1 26.56-26.58z" fill="#88c9ff"/><path d="m185 385.23v-14.01c0-2.25 1.36-4.22 3.61-4.22h-30c-2.25 0-3.61 1.97-3.61 4.22v14.01a3.451 3.451 0 0 0 3.61 3.77h30a3.451 3.451 0 0 1 -3.61-3.77z" fill="#e5b49e"/><path d="m90.258 417.2a6 6 0 0 1 -6-6v-105.663a6 6 0 0 1 12 0v105.663a6 6 0 0 1 -6 6z" fill="#d4e1f4"/><path d="m90.258 291.046a6 6 0 0 1 -6-6v-5.357a6 6 0 0 1 12 0v5.357a6 6 0 0 1 -6 6z" fill="#d4e1f4"/><path d="m431.84 80.01a13.751 13.751 0 0 0 -9.89 4.19 14.054 14.054 0 0 0 -3.95 10.12v139.82a14 14 0 1 0 28 0v-139.82a14.18 14.18 0 0 0 -14.16-14.31z" fill="#59597a"/><path d="m88.95 84.2a13.7 13.7 0 0 0 -9.875-4.19 14.1 14.1 0 0 0 -14.075 14.31v139.82a14 14 0 1 0 28 0v-139.82a14.134 14.134 0 0 0 -4.05-10.12z" fill="#59597a"/><g fill="#6d6d93"><path d="m460.655 86.8a14.676 14.676 0 0 0 -10.3 4.19 14.423 14.423 0 0 0 -4.355 10.13v126.22a14.5 14.5 0 0 0 29 0v-126.22a14.346 14.346 0 0 0 -14.345-14.32z"/><path d="m60.635 90.99a14.457 14.457 0 0 0 -24.635 10.13v126.22a14.5 14.5 0 0 0 29 0v-126.22a14.43 14.43 0 0 0 -4.365-10.13z"/></g></svg>