<svg id="Layer_1" height="512" viewBox="0 0 512 512" width="512" xmlns="http://www.w3.org/2000/svg" data-name="Layer 1"><path d="m76.04 17c-27.39 0-50.04 22.19-50.04 49.56v401.12l38.36-30.49 38.22 30.49 37.42-29.86 192-24.82v-352.83a42.757 42.757 0 0 1 42.7-43.17z" fill="#fff6f3"/><path d="m417.89 60.17v215.66h-86.38v-215.66a43.19 43.19 0 0 1 86.38 0z" fill="#e8dcd9"/><rect fill="#6d6d93" height="131.9" rx="12.23" width="35.33" x="450.21" y="363.1"/><path d="m450.21 375.33v107.44a12.236 12.236 0 0 1 -12.23 12.23h-10.87a12.238 12.238 0 0 1 -12.24-12.23v-107.44a12.238 12.238 0 0 1 12.24-12.23h10.87a12.236 12.236 0 0 1 12.23 12.23z" fill="#59597a"/><path d="m402.64 363h-10.87c-6.76 0-11.77 5.58-11.77 12.33v107.44c0 6.75 5.01 12.23 11.77 12.23h10.87a12.341 12.341 0 0 0 12.36-12.23v-107.44a12.427 12.427 0 0 0 -12.36-12.33z" fill="#6d6d93"/><path d="m233.85 363h-10.87a12.1 12.1 0 0 0 -11.98 12.33v107.44a12.018 12.018 0 0 0 11.98 12.23h10.87a12.161 12.161 0 0 0 12.15-12.23v-107.44a12.247 12.247 0 0 0 -12.15-12.33z" fill="#6d6d93"/><rect fill="#59597a" height="131.9" rx="12.23" width="35.34" x="175.41" y="363.1"/><path d="m163.18 363h-10.87a12.383 12.383 0 0 0 -12.31 12.33v107.44a12.3 12.3 0 0 0 12.31 12.23h10.87a11.892 11.892 0 0 0 11.82-12.23v-107.44c0-6.75-5.07-12.33-11.82-12.33z" fill="#6d6d93"/><path d="m246.29 405h-.29v48h.29 133.71v-48z" fill="#b3d1e7"/><path d="m106.04 17h-30c-27.39 0-50.04 22.19-50.04 49.56v401.12l30-23.845v-377.275c0-27.37 22.65-49.56 50.04-49.56z" fill="#e8dcd9"/><g fill="#c9bcb9"><path d="m68.769 320.058h-2.727a6 6 0 0 1 0-12h2.727a6 6 0 0 1 0 12z"/><path d="m116.584 320.058h-20.6a6 6 0 0 1 0-12h20.6a6 6 0 0 1 0 12z"/><path d="m291.926 320.058h-147.689a6 6 0 1 1 0-12h147.689a6 6 0 0 1 0 12z"/><path d="m68.769 261.981h-2.727a6 6 0 0 1 0-12h2.727a6 6 0 0 1 0 12z"/><path d="m116.584 261.981h-20.6a6 6 0 0 1 0-12h20.6a6 6 0 0 1 0 12z"/><path d="m291.926 261.981h-147.689a6 6 0 1 1 0-12h147.689a6 6 0 0 1 0 12z"/><path d="m68.769 203.9h-2.727a6 6 0 0 1 0-12h2.727a6 6 0 0 1 0 12z"/><path d="m116.584 203.9h-20.6a6 6 0 0 1 0-12h20.6a6 6 0 0 1 0 12z"/><path d="m291.926 203.9h-147.689a6 6 0 1 1 0-12h147.689a6 6 0 0 1 0 12z"/></g><path d="m83.368 84.711a11.334 11.334 0 0 1 11.325 11.317 6 6 0 0 0 6 6 5.845 5.845 0 0 0 5.816-6 23.48 23.48 0 0 0 -17.509-22.528v-4.3a6 6 0 0 0 -12 0v4.3a23.155 23.155 0 0 0 -17.142 22.528 23.427 23.427 0 0 0 23.418 23.317 11.314 11.314 0 0 1 .194 22.628c-.042 0-.071-.006-.114-.006s-.077 0-.119.006a11.328 11.328 0 0 1 -11.2-11.31 6 6 0 0 0 -6-6 6.159 6.159 0 0 0 -6.184 6 23.156 23.156 0 0 0 17.147 22.531v5.088a6 6 0 0 0 12 0v-5.088a23.289 23.289 0 0 0 -5.724-45.849 11.317 11.317 0 1 1 .092-22.634z" fill="#5fa8ed"/><path d="m147.609 107.345a11.317 11.317 0 1 1 11.326-11.317 6 6 0 0 0 6 6 6.17 6.17 0 0 0 6.195-6 23.144 23.144 0 0 0 -17.13-22.528v-4.3a6 6 0 0 0 -12 0v4.3a23.287 23.287 0 0 0 5.707 45.848 11.314 11.314 0 0 1 .052 22.628c-.042 0-.095-.006-.138-.006s-.089 0-.131.006a11.334 11.334 0 0 1 -11.2-11.31 6 6 0 0 0 -6-6 5.836 5.836 0 0 0 -5.8 6 23.49 23.49 0 0 0 17.51 22.528v5.088a6 6 0 1 0 12 0v-5.088a23.144 23.144 0 0 0 17.13-22.531 23.516 23.516 0 0 0 -23.521-23.318z" fill="#5fa8ed"/><path d="m357.258 240.2a6 6 0 0 1 -6-6v-85.663a6 6 0 1 1 12 0v85.663a6 6 0 0 1 -6 6z" fill="#ccc1be"/><path d="m357.258 134.046a6 6 0 0 1 -6-6v-5.357a6 6 0 0 1 12 0v5.357a6 6 0 0 1 -6 6z" fill="#ccc1be"/></svg>