<svg id="Layer_1" height="512" viewBox="0 0 512 512" width="512" xmlns="http://www.w3.org/2000/svg" data-name="Layer 1"><path d="m38.32 88.6h435.36v28.66h-435.36z" fill="#b0b5ca"/><path d="m482 154h-454v52.36l17.26 13.44-17.26 17.88v92.62l23.17 8.54-23.17 24.07v80.09h454v-67.04l-26.26-15.78 26.26-9.96v-48.38l-28.16-8.53 28.16-22.23v-35l-26.26-19.6 26.26-5.69z" fill="#c79a83"/><path d="m483.34 69.19a11.218 11.218 0 0 0 -8.08 3.41 11.441 11.441 0 0 0 -3.26 8.24v44.19a11.522 11.522 0 0 0 11.5 11.65 11.4 11.4 0 0 0 8.16-3.41 11.524 11.524 0 0 0 3.34-8.24v-44.19a11.651 11.651 0 0 0 -11.66-11.65z" fill="#6d7486"/><path d="m36.74 72.6a11.4 11.4 0 0 0 -8.16-3.41 11.583 11.583 0 0 0 -11.58 11.65v44.19a11.592 11.592 0 0 0 3.42 8.24 11.218 11.218 0 0 0 8.08 3.41 11.522 11.522 0 0 0 11.5-11.65v-44.19a11.441 11.441 0 0 0 -3.26-8.24z" fill="#6d7486"/><path d="m419.24 76h-30.16a4.442 4.442 0 0 0 -4.08 4.415v90.925a19.057 19.057 0 0 0 5.63 13.49 18.788 18.788 0 0 0 13.39 5.59 18.992 18.992 0 0 0 18.98-19.08v-91.15a3.969 3.969 0 0 0 -3.76-4.19z" fill="#ccd3df"/><path d="m123.89 76h-31.13c-2.21 0-3.76 2.2-3.76 4.415v90.925a18.519 18.519 0 0 0 18.84 18.66h.97c10.54 0 19.19-8.12 19.19-18.66v-91.15a4.26 4.26 0 0 0 -4.11-4.19z" fill="#ccd3df"/><path d="m349.52 223h-.02c-12.12 0-21.5 9.89-21.5 22.01v107.29a21.361 21.361 0 0 0 21.5 21.7h.02a21.344 21.344 0 0 0 21.48-21.7v-107.065c0-12.12-9.36-22.235-21.48-22.235z" fill="#59597a"/><path d="m162.5 223h-.02c-12.11 0-21.48 9.89-21.48 22.01v107.29a21.351 21.351 0 0 0 21.48 21.7h.02a21.361 21.361 0 0 0 21.5-21.7v-107.07c0-12.12-9.38-22.23-21.5-22.23z" fill="#59597a"/><path d="m405.22 266.23v64.85a16.97 16.97 0 0 1 -33.76 2.47v-69.79a16.97 16.97 0 0 1 33.76 2.47z" fill="#6d6d93"/><path d="m327.56 277.75v41.81h-142.63-.48v-41.81h.48z" fill="#b3d1e7"/><path d="m140.54 263.79v69.71a16.966 16.966 0 0 1 -33.76-2.42v-64.85a16.968 16.968 0 0 1 33.76-2.44z" fill="#6d6d93"/><path d="m81.17 338.84-23.17-8.54v-92.62l17.26-17.88-17.26-13.44v-52.36h-30v52.36l17.26 13.44-17.26 17.88v92.62l23.17 8.54-23.17 24.07v80.09h30v-80.09z" fill="#e1b7a3"/><g fill="#f4f8fc"><path d="m71.1 218.719a6 6 0 0 1 -6-6v-4.17a6 6 0 0 1 12 0v4.17a6 6 0 0 1 -6 6z"/><path d="m71.1 333.168a6 6 0 0 1 -6-6v-96.007a6 6 0 0 1 12 0v96.007a6 6 0 0 1 -6 6z"/></g></svg>