<svg id="Layer_1" height="512" viewBox="0 0 512 512" width="512" xmlns="http://www.w3.org/2000/svg" data-name="Layer 1"><path d="m441.84 393.31v67.18a34.6 34.6 0 0 1 -34.68 34.51h-290.01v-67.19h290.01a34.6 34.6 0 0 0 34.68-34.5z" fill="#b3d1e7"/><path d="m407.16 17h-290.16v411h290.16a34.894 34.894 0 0 0 34.84-34.69v-341.8a34.734 34.734 0 0 0 -34.84-34.51z" fill="#6addc7"/><path d="m117.15 427.81v67.19h-12.31a34.6 34.6 0 0 1 -34.68-34.51v-67.18a34.6 34.6 0 0 0 34.68 34.5z" fill="#4a5160"/><path d="m104.84 17a34.734 34.734 0 0 0 -34.84 34.51v341.8a34.894 34.894 0 0 0 34.84 34.69h12.16v-411z" fill="#6d7486"/><path d="m358.55 104h-13.48c-6.36 0-11.07 5.46-11.07 11.82v94.26c0 6.37 4.71 11.92 11.07 11.92h13.48c6.37 0 11.45-5.55 11.45-11.92v-94.26a11.717 11.717 0 0 0 -11.45-11.82z" fill="#6d6d93"/><path d="m222.2 143.01h111.34v39.88h-111.34z" fill="#b0b5ca"/><path d="m210.67 104h-13.49c-6.36 0-11.18 5.46-11.18 11.82v94.26c0 6.37 4.82 11.92 11.18 11.92h13.49c6.36 0 11.33-5.55 11.33-11.92v-94.26c0-6.36-4.97-11.82-11.33-11.82z" fill="#6d6d93"/><path d="m406.63 115.82v94.26a11.534 11.534 0 0 1 -11.53 11.53h-13.49a11.534 11.534 0 0 1 -11.53-11.53v-94.26a11.54 11.54 0 0 1 11.53-11.53h13.49a11.54 11.54 0 0 1 11.53 11.53z" fill="#59597a"/><path d="m185.65 115.82v94.26a11.527 11.527 0 0 1 -11.53 11.53h-13.48a11.534 11.534 0 0 1 -11.53-11.53v-94.26a11.54 11.54 0 0 1 11.53-11.53h13.48a11.534 11.534 0 0 1 11.53 11.53z" fill="#59597a"/><path d="m100.16 427.488a34.565 34.565 0 0 1 -30-34.178v67.18a34.586 34.586 0 0 0 33.2 34.473 34.234 34.234 0 0 1 -3.2-14.473z" fill="#5c636d"/><path d="m117 21.891v-4.891h-12.16a34.734 34.734 0 0 0 -34.84 34.51v341.8a34.9 34.9 0 0 0 30 34.345v-376.145a34.457 34.457 0 0 1 17-29.619z" fill="#8d96aa"/><g fill="#56b2a1"><path d="m404.215 315.6h-9.436a6 6 0 0 1 0-12h9.436a6 6 0 0 1 0 12z"/><path d="m354.889 315.6h-37.66a6 6 0 0 1 0-12h37.66a6 6 0 0 1 0 12z"/><path d="m280.61 315.6h-129.086a6 6 0 0 1 0-12h129.086a6 6 0 0 1 0 12z"/><path d="m404.215 274.5h-45.115a6 6 0 0 1 0-12h45.119a6 6 0 0 1 0 12z"/><path d="m319.206 274.5h-109.024a6 6 0 1 1 0-12h109.024a6 6 0 0 1 0 12z"/><path d="m173.562 274.5h-22.038a6 6 0 0 1 0-12h22.038a6 6 0 0 1 0 12z"/><path d="m404.215 356.7h-211.875a6 6 0 0 1 0-12h211.875a6 6 0 0 1 0 12z"/><path d="m155.721 356.7h-4.2a6 6 0 0 1 0-12h4.2a6 6 0 0 1 0 12z"/></g><path d="m97.258 209.2a6 6 0 0 1 -6-6v-135.663a6 6 0 0 1 12 0v135.663a6 6 0 0 1 -6 6z" fill="#f4f8fc"/><path d="m97.258 53.046a6 6 0 0 1 -6-6v-5.357a6 6 0 0 1 12 0v5.357a6 6 0 0 1 -6 6z" fill="#f4f8fc"/></svg>