<svg id="Layer_1" height="512" viewBox="0 0 512 512" width="512" xmlns="http://www.w3.org/2000/svg" data-name="Layer 1"><path d="m461.42 424.78-3.73 51.61-33.86 5.38a1071.124 1071.124 0 0 1 -335.66 0l-33.86-5.38-3.73-51.62.27-.02 40.03 6.25a1070.843 1070.843 0 0 0 330.23-.02l39.91-6.23z" fill="#f1ce7c"/><path d="m44 333 6.48 91.86.32-.065 40.055 6.227a1070.92 1070.92 0 0 0 330.242-.031l39.917-6.235.5.027 6.486-91.783z" fill="#a5bc8a"/><path d="m374.11 17.55-.69 54.93a75.669 75.669 0 0 0 -18.95 2.6c-33.72 8.93-58.02 38.35-61.59 73l-7.51 62.28.06.3a143.639 143.639 0 0 1 -29.43 2.99 144.665 144.665 0 0 1 -28.46-2.78l.16-.87-8.27-62.68c-3.68-32.65-25.8-60.64-57.1-70.82a77.613 77.613 0 0 0 -23.75-4.01l-.69-55.14.1-.01q4.53-.345 9.14-.34c26.18 0 50.44 14.67 70.27 34.41a53.1 53.1 0 0 0 74.77 0c19.83-19.74 44.09-34.41 70.27-34.41 3.89 0 7.75.18 11.55.55z" fill="#a5bc8a"/><path d="m479.01 246.57c-14.16-47.87-27.31-85.37-37.79-134.18l-10.385-48.14a59.08 59.08 0 0 0 -56.835-46.9v.65l-1.107 94.255c-2.04 52.57-38.647 88.307-87.476 98.517a143.606 143.606 0 0 1 -29.424 2.934 144.614 144.614 0 0 1 -28.456-2.808c-49.31-9.94-86.409-45.934-88.459-98.854l-1.188-94.687a59.417 59.417 0 0 0 -56.78 46.9l-10.33 48.134c-10.48 48.809-23.63 86.309-37.79 134.179a111.326 111.326 0 0 0 11.21 88.07c18.13 30.71 50.75 52.85 91.42 53.89 1.06.03 2.12.04 3.19.04a122.722 122.722 0 0 0 25.75-2.58 432.552 432.552 0 0 1 90.57-9.99h1.74a432.552 432.552 0 0 1 90.57 9.99 122.726 122.726 0 0 0 25.75 2.645c1.07 0 2.13-.043 3.19-.073 40.67-1.04 73.29-23.2 91.42-53.906a111.364 111.364 0 0 0 11.21-88.086z" fill="#bad79d"/><path d="m50.8 424.795-.215.044 3.725 51.551 32.026 5.089-4.306-51.829z" fill="#ffdc9f"/><path d="m82.03 429.65-8.03-96.65h-30l6.48 91.86.105-.021.215-.044z" fill="#c7ddab"/><path d="m74.2 334.64a111.326 111.326 0 0 1 -11.21-88.07c14.16-47.87 27.31-85.37 37.79-134.179l10.33-48.139a59.182 59.182 0 0 1 26.89-38.046l-.111-8.849a59.417 59.417 0 0 0 -56.78 46.9l-10.329 48.134c-10.48 48.809-23.63 86.309-37.79 134.179a111.326 111.326 0 0 0 11.21 88.07c18.13 30.71 50.75 52.85 91.42 53.89 1.06.03 2.12.04 3.19.04a131.234 131.234 0 0 0 15.489-.893c-35.391-4.455-63.684-25.232-80.099-53.037z" fill="#d8f2bb"/><g fill="#f4f8fc"><path d="m347.448 337.86a6.058 6.058 0 0 1 -1.262-.134c-30.95-6.628-61-9.989-89.315-9.989h-1.742a402.99 402.99 0 0 0 -55.577 3.994 6 6 0 1 1 -1.662-11.884 414.977 414.977 0 0 1 57.239-4.11h1.742c29.158 0 60.053 3.45 91.827 10.254a6 6 0 0 1 -1.25 11.869z"/><path d="m164.552 337.86a6 6 0 0 1 -1.251-11.868c3.42-.733 6.876-1.437 10.272-2.092a6 6 0 1 1 2.273 11.783c-3.316.639-6.691 1.327-10.031 2.042a6 6 0 0 1 -1.263.135z"/></g></svg>