<svg id="Layer_1" height="512" viewBox="0 0 512 512" width="512" xmlns="http://www.w3.org/2000/svg" data-name="Layer 1"><path d="m49 216.15v275.85h416v-276.51z" fill="#6d7486"/><path d="m208.18 229.34a53.8 53.8 0 0 1 -95.58-.01l-.01.02c-12.85 24.84-40.21 33.77-63.5 26.8a52.948 52.948 0 0 1 -32.08-26.8l-.01-.02v-32.96h478v32.96l-.02.04a52.876 52.876 0 0 1 -30.03 26.12c-23.71 8.15-52.32-.56-65.55-26.12l-.01-.04-.01.02c-20.07 38.78-75.52 38.78-95.59.01l-.01-.03-.01.02c-20.06 38.78-75.52 38.78-95.58 0z" fill="#978cac"/><path d="m419.24 132h-323.7l-78.54 64h478z" fill="#baabd4"/><path d="m143 20h226v137h-226z" fill="#bad79d"/><rect fill="#6d6d93" height="71.12" rx="6.99" width="22.15" x="311.9" y="52.61"/><rect fill="#59597a" height="71.12" rx="6.99" width="22.15" x="289.75" y="52.61"/><rect fill="#59597a" height="71.12" rx="6.99" width="22.15" x="200.1" y="52.61"/><rect fill="#6d6d93" height="71.12" rx="6.99" width="22.15" x="177.95" y="52.61"/><path d="m222.25 76.08h67.5v24.18h-67.5z" fill="#b0b5ca"/><path d="m422.32 313.48v178.91h-330.61v-177.55z" fill="#a0eaea"/><path d="m95.54 132-78.54 64h30l78.54-64z" fill="#d3c7ef"/><path d="m91.71 314.84h30v177.55h-30z" fill="#87c6c4"/><path d="m47.01 229.35-.01-.02v-32.96h-30v32.96l.01.02a52.948 52.948 0 0 0 32.08 26.8 54.96 54.96 0 0 0 30.7.2c-.234-.067-.47-.125-.7-.2a52.948 52.948 0 0 1 -32.08-26.8z" fill="#baabd4"/><g fill="#f4f8fc"><path d="m253.728 349.32h-95.115a6 6 0 0 1 0-12h95.115a6 6 0 0 1 0 12z"/><path d="m130.179 349.32h-9.4a6 6 0 0 1 0-12h9.4a6 6 0 1 1 0 12z"/></g></svg>