<svg id="Layer_1" height="512" viewBox="0 0 512 512" width="512" xmlns="http://www.w3.org/2000/svg" data-name="Layer 1"><path d="m439.89 123h-422.89v265.75a39.261 39.261 0 0 0 39.29 39.25h166.71l218-1v-304z" fill="#fbedce"/><path d="m401.27 45h-344.98a39.469 39.469 0 0 0 -39.29 39.5v38.5h424v-38.5c0-21.7-18.03-39.5-39.73-39.5z" fill="#eb7288"/><path d="m440.625 340.247c-.62-.05-1.315-.247-1.945-.247h-.01a22.977 22.977 0 0 0 -22.67 22.63v108.54c0 12.26 10.41 21.83 22.67 21.83h.01a21.991 21.991 0 0 0 22.32-21.83v-108.635a22.4 22.4 0 0 0 -20.375-22.288z" fill="#6d6d93"/><path d="m416.48 395.75v42.29h-144.21-.5v-42.29h.5z" fill="#b3d1e7"/><path d="m249.58 340h-.01a22.9 22.9 0 0 0 -22.57 22.63v108.54c0 12.26 10.32 21.83 22.57 21.83h.01c12.26 0 22.42-9.57 22.42-21.83v-108.56a22.743 22.743 0 0 0 -22.42-22.61z" fill="#6d6d93"/><path d="m495 384.1v65.6a17.155 17.155 0 0 1 -34.13 2.49v-70.59a17.155 17.155 0 0 1 34.13 2.5z" fill="#59597a"/><path d="m227.38 381.69v70.45a17.156 17.156 0 0 1 -34.14-2.44v-65.6a17.153 17.153 0 0 1 34.14-2.41z" fill="#59597a"/><path d="m333 19v39.54a23.756 23.756 0 0 0 23.49 23.46h1.96a23.808 23.808 0 0 0 23.55-23.46v-39.54z" fill="#efce7e"/><g fill="#5fcda4"><path d="m381.87 165.18a13.605 13.605 0 1 1 -13.61 13.6 13.6 13.6 0 0 1 13.61-13.6z"/><path d="m381.87 228.94a13.6 13.6 0 1 1 -13.61 13.6 13.6 13.6 0 0 1 13.61-13.6z"/><path d="m381.87 292.7a13.6 13.6 0 1 1 -13.61 13.6 13.6 13.6 0 0 1 13.61-13.6z"/><path d="m305.32 165.18a13.605 13.605 0 1 1 -13.6 13.6 13.6 13.6 0 0 1 13.6-13.6z"/><path d="m305.32 228.94a13.6 13.6 0 1 1 -13.6 13.6 13.6 13.6 0 0 1 13.6-13.6z"/><path d="m305.32 292.7a13.6 13.6 0 1 1 -13.6 13.6 13.6 13.6 0 0 1 13.6-13.6z"/><path d="m228.78 165.18a13.605 13.605 0 1 1 -13.61 13.6 13.6 13.6 0 0 1 13.61-13.6z"/><ellipse cx="228.78" cy="242.54" rx="13.61" ry="13.6"/><ellipse cx="228.78" cy="306.3" rx="13.61" ry="13.6"/><path d="m152.24 165.18a13.605 13.605 0 1 1 -13.61 13.6 13.61 13.61 0 0 1 13.61-13.6z"/><ellipse cx="152.24" cy="242.54" rx="13.61" ry="13.6"/><ellipse cx="152.24" cy="306.3" rx="13.61" ry="13.6"/><path d="m152.24 356.45a13.605 13.605 0 1 1 -13.61 13.61 13.612 13.612 0 0 1 13.61-13.61z"/><path d="m75.7 228.94a13.6 13.6 0 1 1 -13.61 13.6 13.6 13.6 0 0 1 13.61-13.6z"/><path d="m75.7 292.7a13.6 13.6 0 1 1 -13.61 13.6 13.6 13.6 0 0 1 13.61-13.6z"/><path d="m75.7 356.45a13.605 13.605 0 1 1 -13.61 13.61 13.6 13.6 0 0 1 13.61-13.61z"/></g><path d="m47 388.75v-265.75h-30v265.75a39.261 39.261 0 0 0 39.29 39.25h30a39.261 39.261 0 0 1 -39.29-39.25z" fill="#e8d9bc"/><path d="m47 123v-38.5a39.469 39.469 0 0 1 39.29-39.5h-30a39.469 39.469 0 0 0 -39.29 39.5v38.5z" fill="#ff94ab"/><path d="m76 19v39.54a23 23 0 1 0 46 0v-39.54z" fill="#efce7e"/><path d="m41 165a6 6 0 0 1 -6-6v-6a6 6 0 0 1 12 0v6a6 6 0 0 1 -6 6z" fill="#ccbea6"/><path d="m41 290a6 6 0 0 1 -6-6v-104a6 6 0 0 1 12 0v104a6 6 0 0 1 -6 6z" fill="#ccbea6"/></svg>