<svg id="Layer_1" height="512" viewBox="0 0 512 512" width="512" xmlns="http://www.w3.org/2000/svg" data-name="Layer 1"><path d="m494.93 247.56v91.44h-91.32v-92z" fill="#d8ff33"/><path d="m212.226 245.81-12.688.305c-100.371 0-181.908-21.115-182.458-46.115h-.02l-.56 80.715c0 15.34 11.79 27.367 31.93 36.5 32.95 14.937 88.26 21.785 150.78 21.785h204.79v-92z" fill="#5fcda4"/><path d="m381.79 200.8-1.29 45.75v.3l-168.47-1.04c93.01-1.61 166.86-21.04 169.67-45.02z" fill="#6d7486"/><path d="m212.03 245.81q-6.24.12-12.59.12c-100.37 0-181.81-20.71-182.36-46.3v-.26c0-25.71 81.65-46.55 182.36-46.55s182.35 20.84 182.35 46.55a11.163 11.163 0 0 1 -.09 1.42c-2.81 23.98-76.66 43.41-169.67 45.02z" fill="#b0b5ca"/><path d="m199.44 169.14c65.39 0 118.4 13.54 118.4 30.23s-53.01 30.23-118.4 30.23-118.41-13.53-118.41-30.23 53.01-30.23 118.41-30.23z" fill="#ccd3df"/><path d="m199.44 185.68c29.63 0 53.65 6.13 53.65 13.69s-24.02 13.7-53.65 13.7-53.65-6.13-53.65-13.7 24.02-13.69 53.65-13.69z" fill="#b0b5ca"/><ellipse cx="449.98" cy="292.87" fill="#81c83d" rx="14.05" ry="14.16"/><path d="m47.039 224.983c-18.758-7.252-29.758-15.858-29.959-24.983h-.02l-.56 80.715c0 15.34 11.79 27.367 31.93 36.5.9.407 1.819.806 2.749 1.2a28.674 28.674 0 0 1 -4.679-15.7z" fill="#97ffd5"/><path d="m47.08 199.63v-.26c0-24.42 73.667-44.445 167.36-46.392q-7.422-.155-15-.158c-100.71 0-182.36 20.84-182.36 46.55v.26c.55 25.59 81.99 46.3 182.36 46.3q6.345 0 12.59-.12c.719-.012 1.433-.029 2.15-.044-93.236-1.973-166.58-21.857-167.1-46.136z" fill="#ccd3df"/><g fill="#4ea581"><path d="m360.871 310.02a6.2 6.2 0 0 0 -6 6.229v22.751h12v-22.75a6.2 6.2 0 0 0 -6-6.23z"/><path d="m316.184 287.5a6.2 6.2 0 0 0 -6 6.23v45.271h12v-45.271a6.2 6.2 0 0 0 -6-6.23z"/><path d="m271.5 310.02a6.2 6.2 0 0 0 -6 6.229v22.751h12v-22.75a6.2 6.2 0 0 0 -6-6.23z"/><path d="m226.81 287.5a6.2 6.2 0 0 0 -6 6.23v45.271h12v-45.271a6.2 6.2 0 0 0 -6-6.23z"/><path d="m182.123 310.02a6.2 6.2 0 0 0 -6 6.229v22.751h12v-22.75a6.2 6.2 0 0 0 -6-6.23z"/><path d="m137.436 285.247a5.879 5.879 0 0 0 -6 5.856v44.9l12 1v-45.9a5.878 5.878 0 0 0 -6-5.856z"/><path d="m92.749 301.011a6.206 6.206 0 0 0 -6 6.234v21.755l12 2v-23.754a6.2 6.2 0 0 0 -6-6.235z"/><path d="m48.436 266.247a5.879 5.879 0 0 0 -6 5.856v42.9l12 5v-47.9a5.878 5.878 0 0 0 -6-5.856z"/></g><path d="m318 365h-14a6 6 0 0 1 0-12h14a6 6 0 0 1 0 12z" fill="#d4e1f4"/><path d="m280 365h-80.793c-30.073 0-57.639-1.572-81.932-4.674a6 6 0 1 1 1.519-11.9c23.792 3.034 50.847 4.574 80.413 4.574h80.793a6 6 0 0 1 0 12z" fill="#d4e1f4"/></svg>