<svg id="Layer_1" height="512" viewBox="0 0 512 512" width="512" xmlns="http://www.w3.org/2000/svg" data-name="Layer 1"><path d="m268.755 329.15 146.245-77.95v-176.94c0-22-17.5-40.26-39.5-40.26h-318.67c-22 0-39.83 18.26-39.83 40.26v214.97a39.782 39.782 0 0 0 39.83 39.77h16.21a13.773 13.773 0 0 1 13.65 11.13c9.05 51.24 44.81 62.57 44.81 62.57.27.42.52.118.77-.743 1.81-6.5 1.23-24.746 7.1-41.346s18.21-31.611 45.85-31.611" fill="#6994fe"/><path d="m415.33 244.2a117.267 117.267 0 0 1 51.61 187.36l19.57 46.01-68.24-11.94a117.466 117.466 0 1 1 -2.94-221.43z" fill="#81e1df"/><path d="m452.14 330.08v55.38a6.777 6.777 0 0 1 -6.78 6.77h-7.92a6.769 6.769 0 0 1 -6.77-6.77v-55.38a6.769 6.769 0 0 1 6.77-6.77h7.92a6.777 6.777 0 0 1 6.78 6.77z" fill="#59597a"/><path d="m343.77 346.05h67.42v23.44h-67.42z" fill="#b0b5ca"/><path d="m344 329.77a6.775 6.775 0 0 0 -6.78-6.77h-7.44a6.775 6.775 0 0 0 -6.78 6.77v55.46a6.775 6.775 0 0 0 6.78 6.77h7.44a6.775 6.775 0 0 0 6.78-6.77z" fill="#6d6d93"/><path d="m323.29 330.08v55.38a6.769 6.769 0 0 1 -6.77 6.77h-7.92a6.771 6.771 0 0 1 -6.78-6.77v-55.38a6.771 6.771 0 0 1 6.78-6.77h7.92a6.769 6.769 0 0 1 6.77 6.77z" fill="#59597a"/><path d="m431 329.77a6.775 6.775 0 0 0 -6.78-6.77h-7.44a6.775 6.775 0 0 0 -6.78 6.77v55.46a6.775 6.775 0 0 0 6.78 6.77h7.44a6.775 6.775 0 0 0 6.78-6.77z" fill="#6d6d93"/><path d="m103.04 329h-16.21a39.782 39.782 0 0 1 -39.83-39.77v-214.97c0-22 17.83-40.26 39.83-40.26h-30c-22 0-39.83 18.26-39.83 40.26v214.97a39.782 39.782 0 0 0 39.83 39.77h16.21a13.773 13.773 0 0 1 13.65 11.13c9.05 51.24 44.81 62.57 44.81 62.57.27.42.52.117.77-.743 1.02-3.662 1.281-11.053 2.365-19.777-7.533-9.484-14.583-23.008-17.945-42.045a13.773 13.773 0 0 0 -13.65-11.135z" fill="#9bf"/><path d="m289.96 355.48a117.4 117.4 0 0 1 102.508-116.557 117.514 117.514 0 1 0 -14.988 234.067 116.064 116.064 0 0 0 14.887-.964 117.53 117.53 0 0 1 -102.407-116.546z" fill="#abfffb"/><g fill="#4873b7"><path d="m365.542 217.909h-116.242a6 6 0 0 1 0-12h116.242a6 6 0 1 1 0 12z"/><path d="m225.188 217.909h-99.922a6 6 0 0 1 0-12h99.922a6 6 0 0 1 0 12z"/><path d="m101.9 217.909h-35.108a6 6 0 0 1 0-12h35.108a6 6 0 0 1 0 12z"/><path d="m365.542 168.124h-26.649a6 6 0 0 1 0-12h26.649a6 6 0 0 1 0 12z"/><path d="m315.75 168.124h-58.79a6 6 0 1 1 0-12h58.79a6 6 0 0 1 0 12z"/><path d="m233.515 168.124h-166.723a6 6 0 0 1 0-12h166.723a6 6 0 0 1 0 12z"/><path d="m365.542 108.38h-21.542a6 6 0 0 1 0-12h21.547a6 6 0 0 1 0 12z"/><path d="m320.345 108.38h-205.672a6 6 0 0 1 0-12h205.672a6 6 0 0 1 0 12z"/><path d="m91.227 108.38h-24.435a6 6 0 0 1 0-12h24.435a6 6 0 0 1 0 12z"/><path d="m250.654 267.7h-34.668a6 6 0 0 1 0-12h34.668a6 6 0 0 1 0 12z"/><path d="m191.625 267.7h-124.833a6 6 0 1 1 0-12h124.833a6 6 0 0 1 0 12z"/></g><path d="m41.258 171.2a6 6 0 0 1 -6-6v-59.663a6 6 0 0 1 12 0v59.663a6 6 0 0 1 -6 6z" fill="#f4f8fc"/><path d="m41.258 91.046a6 6 0 0 1 -6-6v-5.357a6 6 0 0 1 12 0v5.357a6 6 0 0 1 -6 6z" fill="#f4f8fc"/></svg>