<svg id="Layer_1" enable-background="new 0 0 512 512" height="512" viewBox="0 0 512 512" width="512" xmlns="http://www.w3.org/2000/svg"><path d="m345.5 58h-309.4c-10.5 0-19.1 9-19.1 19.5v393.5c0 10.5 8.5 19 19 19h.1 309.3c10.6 0 19.5-8.4 19.5-19v-393.5c-.1-10.7-8.7-19.3-19.4-19.5z" fill="#c79a83"/><path d="m320.7 97h-259.8c-5.4.2-9.8 4.5-9.9 10v335.6c0 5.3 4.6 9.4 9.9 9.4h213.9l55.2-55v-290c0-5.3-4-10-9.3-10z" fill="#e9fbff"/><path d="m275.5 397.2-.5 54.8 55-55z" fill="#dae6e8"/><path d="m225.2 77.3v-21.1c0-19-15.4-34.4-34.4-34.4s-34.4 15.4-34.4 34.4v21.1h-41.6v42h152.1v-42z" fill="#82a5ce"/><path d="m180.7 255.1h-10.6c-6.6 0-11.9 5.3-11.9 11.9v104.7c0 6.6 5.3 11.9 11.9 11.9h10.6c6.6 0 11.9-5.3 11.9-11.9v-104.7c0-6.5-5.3-11.9-11.9-11.9z" fill="#59597a"/><path d="m215.1 255.1h-10.6c-6.6 0-11.9 5.3-11.9 11.9v104.7c0 6.6 5.3 11.9 11.9 11.9h10.6c6.6 0 11.9-5.3 11.9-11.9v-104.7c.1-6.5-5.3-11.9-11.9-11.9z" fill="#6d6d93"/><path d="m249.6 255.1h-10.6c-6.6 0-11.9 5.3-11.9 11.9v104.7c0 6.6 5.3 11.9 11.9 11.9h10.6c6.6 0 11.9-5.3 11.9-11.9v-104.7c0-6.5-5.3-11.9-11.9-11.9z" fill="#59597a"/><path d="m438 255.1h10.6c6.6 0 11.9 5.3 11.9 11.9v104.7c0 6.6-5.3 11.9-11.9 11.9h-10.6c-6.6 0-11.9-5.3-11.9-11.9v-104.7c0-6.5 5.3-11.9 11.9-11.9z" fill="#6d6d93"/><path d="m414.2 255.1h-10.6c-6.6 0-11.9 5.3-11.9 11.9v104.7c0 6.6 5.3 11.9 11.9 11.9h10.6c6.6 0 11.9-5.3 11.9-11.9v-104.7c0-6.5-5.3-11.9-11.9-11.9z" fill="#59597a"/><path d="m483.1 255.1h-10.6c-6.6 0-11.9 5.3-11.9 11.9v104.7c0 6.6 5.3 11.9 11.9 11.9h10.6c6.6 0 11.9-5.3 11.9-11.9v-104.7c0-6.5-5.3-11.9-11.9-11.9z" fill="#59597a"/><path d="m261.7 295.7h-.2v47.3h.2 129.9v-47.3z" fill="#b0b5ca"/><path d="m81 442.6v-335.6c.1-5.4 4.5-9.8 9.9-10h-30c-5.4.2-9.8 4.5-9.9 10v335.6c0 5.3 4.6 9.4 9.9 9.4h30c-5.3 0-9.9-4.1-9.9-9.4z" fill="#cfe1e5"/><g fill="#afc3c6"><path d="m286.4 181.6h-13.3c-3.3 0-6-2.7-6-6s2.7-6 6-6h13.3c3.3 0 6 2.7 6 6s-2.7 6-6 6z"/><path d="m241.5 181.6h-29.8c-3.3 0-6-2.7-6-6s2.7-6 6-6h29.8c3.3 0 6 2.7 6 6s-2.7 6-6 6z"/><path d="m182.7 181.6h-87.5c-3.3 0-6-2.7-6-6s2.7-6 6-6h87.5c3.3 0 6 2.7 6 6s-2.7 6-6 6z"/><path d="m286.4 214.1h-153.1c-3.3 0-6-2.7-6-6s2.7-6 6-6h153.1c3.3 0 6 2.7 6 6s-2.7 6-6 6z"/><path d="m104.3 214.1h-9.2c-3.3 0-6-2.7-6-6s2.7-6 6-6h9.2c3.3 0 6 2.7 6 6s-2.6 6-6 6z"/></g><path d="m76 421.5c-3.3 0-6-2.7-6-6v-129.9c0-3.3 2.7-6 6-6s6 2.7 6 6v129.9c0 3.3-2.7 6-6 6z" fill="#f4f8fc"/><path d="m76 273.3c-3.3 0-6-2.7-6-6v-4.8c0-3.3 2.7-6 6-6s6 2.7 6 6v4.8c0 3.3-2.7 6-6 6z" fill="#f4f8fc"/></svg>