<svg id="Layer_1" height="512" viewBox="0 0 512 512" width="512" xmlns="http://www.w3.org/2000/svg" data-name="Layer 1"><path d="m421.42 421.84v73.16h-330.84v-98.76h.17c29.55 2.15 31.02 25.73 63.38 25.73 33.9 0 33.9-25.88 67.8-25.88s33.9 25.88 67.8 25.88 33.91-25.88 67.81-25.88c32.48 0 33.85 23.75 63.71 25.75z" fill="#5fa8ed"/><path d="m421.42 365.17v56.67h-.17c-29.86-2-31.23-25.75-63.71-25.75-33.9 0-33.9 25.88-67.81 25.88s-33.9-25.88-67.8-25.88-33.9 25.88-67.8 25.88c-32.36 0-33.83-23.58-63.38-25.73h-.17v-56.67h.17c29.55 2.15 31.02 25.73 63.38 25.73 33.9 0 33.9-25.88 67.8-25.88s33.9 25.88 67.8 25.88 33.91-25.88 67.81-25.88c32.48 0 33.85 23.75 63.71 25.75z" fill="#ea7288"/><path d="m421.42 214.77v150.4h-.17c-29.86-2-31.23-25.75-63.71-25.75-33.9 0-33.9 25.88-67.81 25.88s-33.9-25.88-67.8-25.88-33.9 25.88-67.8 25.88c-32.36 0-33.83-23.58-63.38-25.73h-.17v-124.8l1.6-.62a81.394 81.394 0 0 0 52.42-76.04v-116.73a4 4 0 0 1 3.96-4l41.51-.38a4 4 0 0 1 4.04 4v93.82a61.89 61.89 0 0 0 123.78 0v-93.82a4 4 0 0 1 4.04-4l41.51.38a4 4 0 0 1 3.96 4v116.73a81.394 81.394 0 0 0 52.42 76.04z" fill="#5fa8ed"/><path d="m90.75 396.24h-.17v98.76h30v-85.7c-7.822-5.974-15.546-12.021-29.83-13.06z" fill="#85c8ff"/><path d="m120.58 409.3v-56.67c-7.822-5.97-15.546-12.017-29.83-13.056h-.17v56.67h.17c14.284 1.035 22.008 7.082 29.83 13.056z" fill="#ff94ab"/><path d="m120.58 352.626v-137.856l1.6-.62a81.394 81.394 0 0 0 52.42-76.04v-116.73a4 4 0 0 1 3.96-4l12.94-.118a3.951 3.951 0 0 0 -1.43-.262l-41.51.38a4 4 0 0 0 -3.96 4v116.73a81.394 81.394 0 0 1 -52.42 76.04l-1.6.62v124.8h.17c14.284 1.039 22.008 7.086 29.83 13.056z" fill="#85c8ff"/><g fill="#f4f8fc"><path d="m118.258 327.2a6 6 0 0 1 -6-6v-65.663a6 6 0 0 1 12 0v65.663a6 6 0 0 1 -6 6z"/><path d="m118.258 241.046a6 6 0 0 1 -6-6v-5.357a6 6 0 0 1 12 0v5.357a6 6 0 0 1 -6 6z"/></g></svg>