<svg id="Layer_1" height="512" viewBox="0 0 512 512" width="512" xmlns="http://www.w3.org/2000/svg" data-name="Layer 1"><path d="m350 176.22v-48.3a17.891 17.891 0 0 0 -17.77-17.92h-152.56a17.806 17.806 0 0 0 -17.67 17.92v47.61a53.248 53.248 0 0 0 13.36 35.5 40.361 40.361 0 0 1 0 53.21 53.273 53.273 0 0 0 -13.36 35.51v177.46a17.773 17.773 0 0 0 17.77 17.79h152.46a17.773 17.773 0 0 0 17.77-17.79v-178.16a53.637 53.637 0 0 0 -13.12-35.22 39.957 39.957 0 0 1 0-52.38 53.663 53.663 0 0 0 13.12-35.23z" fill="#6994fe"/><path d="m275.57 17h-40.12a15.49 15.49 0 0 0 -15.45 15.7v11.3h71v-11.3a15.473 15.473 0 0 0 -15.43-15.7z" fill="#6d7486"/><path d="m315.11 70h-118.22a15.643 15.643 0 0 0 -15.89 15.76v24.24h150v-24.24a15.643 15.643 0 0 0 -15.89-15.76z" fill="#6d7486"/><path d="m275.57 69.33v.34h-40.12v-.34-24.85h40.12z" fill="#b3d1e7"/><path d="m162 431.75a16.6 16.6 0 0 1 5.16-32.37h177.68a16.6 16.6 0 0 1 5.16 32.37 16.311 16.311 0 0 1 -5.16.83h-177.68a16.311 16.311 0 0 1 -5.16-.83z" fill="#4ca987"/><path d="m344.84 366.17a16.605 16.605 0 0 1 0 33.21h-177.68a16.605 16.605 0 0 1 0-33.21z" fill="#5fcda4"/><path d="m350 333.8a16.311 16.311 0 0 0 -5.16-.83h-177.68a16.629 16.629 0 0 0 -11.72 4.86 16.6 16.6 0 0 0 11.72 28.34h177.68a16.6 16.6 0 0 0 5.16-32.37z" fill="#4ca987"/><path d="m192 477.21v-44.63h-24.84a16.311 16.311 0 0 1 -5.16-.83v45.46a17.773 17.773 0 0 0 17.77 17.79h30a17.773 17.773 0 0 1 -17.77-17.79z" fill="#9bf"/><path d="m192 332.97v-33.22a53.273 53.273 0 0 1 13.36-35.51 40.361 40.361 0 0 0 0-53.21 53.248 53.248 0 0 1 -13.36-35.5v-47.61a17.806 17.806 0 0 1 17.67-17.92h-30a17.806 17.806 0 0 0 -17.67 17.92v47.61a53.248 53.248 0 0 0 13.36 35.5 40.361 40.361 0 0 1 0 53.21 53.273 53.273 0 0 0 -13.36 35.51v34.05a16.311 16.311 0 0 1 5.16-.83z" fill="#9bf"/><path d="m211 110v-24.24a15.643 15.643 0 0 1 15.89-15.76h-30a15.643 15.643 0 0 0 -15.89 15.76v24.24z" fill="#b0b5ca"/><path d="m192 432.58v-.83a16.595 16.595 0 0 1 0-31.539v-.831h-24.84a16.6 16.6 0 0 0 -5.16 32.37 16.311 16.311 0 0 0 5.16.83z" fill="#6fd1a9"/><path d="m192 399.38v-.831a16.6 16.6 0 0 1 0-31.549v-.832h-24.84a16.605 16.605 0 0 0 0 33.21z" fill="#7fefc1"/><path d="m192 366.17v-.83a16.6 16.6 0 0 1 0-31.54v-.83h-24.84a16.629 16.629 0 0 0 -11.72 4.86 16.6 16.6 0 0 0 11.72 28.34z" fill="#6fd1a9"/><g fill="#f4f8fc"><path d="m200.156 276.886a6 6 0 0 1 -5.129-9.106 58.48 58.48 0 0 0 -6.238-68.734 35.2 35.2 0 0 1 -8.789-23.52v-18.026a6 6 0 0 1 12 0v18.026a23.225 23.225 0 0 0 5.742 15.531 70.48 70.48 0 0 1 7.555 82.932 6 6 0 0 1 -5.141 2.897z"/><path d="m186 144a6 6 0 0 1 -6-6v-5.081a6 6 0 1 1 12 0v5.081a6 6 0 0 1 -6 6z"/></g></svg>