<svg id="Layer_1" height="512" viewBox="0 0 512 512" width="512" xmlns="http://www.w3.org/2000/svg" data-name="Layer 1"><path d="m490.53 82.82-62.16-62.46a15.3 15.3 0 0 0 -21.58 21.69l62.16 62.46a15.3 15.3 0 0 0 21.58-21.69z" fill="#6d7486"/><path d="m438.73 169.57-96.7-97.16a15.3 15.3 0 0 0 -21.58 21.69l96.7 97.15a15.295 15.295 0 0 0 21.58-21.68z" fill="#b3d1e7"/><path d="m330.38 104.07 76.84 77.21-68.37 68.69c-9.77-9.81-17.2-2.33-26.96-12.14s-2.33-17.28-12.09-27.08-17.19-2.34-26.95-12.14c-9.32-9.36-2.97-16.6-10.86-25.76l-.03-.03z" fill="#ddecf5"/><path d="m175.57 377.58a54.515 54.515 0 0 1 -40.57-40.77 54.795 54.795 0 0 1 14.5-51.01l112.46-112.98.03.03c7.89 9.16 1.54 16.4 10.86 25.76 9.76 9.8 17.19 2.33 26.95 12.14s2.33 17.27 12.09 27.08 17.19 2.33 26.96 12.14l-112.51 113.04a54.11 54.11 0 0 1 -50.77 14.57z" fill="#53d8d8"/><path d="m175.57 377.58-36.43 36.61a28.762 28.762 0 0 1 -40.58-40.77l36.44-36.61a54.515 54.515 0 0 0 40.57 40.77z" fill="#7ce5e9"/><path d="m450.53 86-47.48 47.71-.01.01-25.32-25.45 47.49-47.71z" fill="#b0b5ca"/><path d="m272.85 198.61c.591.594 1.174 1.122 1.75 1.6l75.732-76.089-19.952-20.051-68.42 68.75.03.03c7.89 9.16 1.54 16.4 10.86 25.76z" fill="#cad9e0"/><path d="m149.442 362.393a15.676 15.676 0 0 0 4.4-12.642q-.261-2.667-.26-5.351a54.554 54.554 0 0 1 15.92-38.6l105.098-105.593c-.576-.475-1.159-1-1.75-1.6-9.32-9.36-2.97-16.6-10.86-25.76l-.03-.03-112.46 112.983a54.745 54.745 0 0 0 -.33 76.867z" fill="#78fffb"/><path d="m118.56 393.42 30.61-30.753a54.385 54.385 0 0 1 -14.17-25.857l-36.44 36.61a28.84 28.84 0 0 0 12.668 48.169 29.109 29.109 0 0 1 -1.068-7.789 28.785 28.785 0 0 1 8.4-20.38z" fill="#a1ffff"/><path d="m15.248 497.894a6 6 0 0 1 -.02-8.485l78.651-79.022 8.506 8.465-78.652 79.022a6 6 0 0 1 -8.485.02z" fill="#b3d1e7"/><g fill="#f4f8fc"><path d="m173.25 302.686a6 6 0 0 1 -4.242-10.243l60.574-60.574a6 6 0 1 1 8.484 8.485l-60.574 60.574a5.979 5.979 0 0 1 -4.242 1.758z"/><path d="m248.313 227.623a6 6 0 0 1 -4.242-10.243l3.788-3.788a6 6 0 1 1 8.485 8.486l-3.788 3.787a5.979 5.979 0 0 1 -4.243 1.758z"/></g></svg>