<svg id="Layer_1" height="512" viewBox="0 0 512 512" width="512" xmlns="http://www.w3.org/2000/svg" data-name="Layer 1"><path d="m407.11 260.51-48.89 47.9a33.216 33.216 0 0 0 -3.81-3.59q-6.2-4.965-12.2-10.17l51.01-50.01q5.25 5.97 10.28 12.14a31.863 31.863 0 0 0 3.61 3.73z" fill="#a0eaea"/><path d="m393.22 244.64-51.01 50.01q-7.98-6.855-15.63-14.12l.06-.06 52.29-51.27.05-.05q7.32 7.575 14.24 15.49z" fill="#88ced8"/><path d="m378.98 229.15-.05.05-52.29 51.27-.06.06q-7.515-7.095-14.68-14.54l.06-.06 51.74-51.82.05-.06q7.8 7.365 15.23 15.1z" fill="#a0eaea"/><path d="m363.75 214.05-.05.06-51.74 51.82-.06.06q-7.305-7.575-14.25-15.49l50.47-50.56q7.995 6.87 15.63 14.11z" fill="#88ced8"/><path d="m348.12 199.94-50.47 50.56q-5.235-5.955-10.26-12.09a34.165 34.165 0 0 0 -3.63-3.78l48.35-48.45a30.388 30.388 0 0 0 3.76 3.58q6.23 4.98 12.25 10.18z" fill="#a0eaea"/><path d="m228.6 277.56-48.9 47.91a32.538 32.538 0 0 0 -3.81-3.6q-6.195-4.98-12.2-10.17l51.02-50q5.25 5.97 10.28 12.13a31.076 31.076 0 0 0 3.61 3.73z" fill="#a0eaea"/><path d="m214.71 261.7-51.02 50q-7.98-6.87-15.63-14.12l.06-.06 52.29-51.27.05-.05q7.32 7.575 14.25 15.5z" fill="#88ced8"/><path d="m200.46 246.2-.05.05-52.29 51.27-.06.06q-7.515-7.095-14.67-14.54l.06-.06 51.74-51.82.05-.05q7.8 7.365 15.22 15.09z" fill="#a0eaea"/><path d="m185.24 231.11-.05.05-51.74 51.82-.06.06q-7.32-7.575-14.26-15.49l50.46-50.55q7.995 6.855 15.65 14.11z" fill="#88ced8"/><path d="m169.59 217-50.46 50.55q-5.235-5.955-10.26-12.09a33.212 33.212 0 0 0 -3.63-3.77l48.35-48.46a30.422 30.422 0 0 0 3.76 3.58q6.21 4.98 12.24 10.19z" fill="#a0eaea"/><g fill="#6d6d93"><path d="m297.49 303.75a63.636 63.636 0 0 1 1.32 89.36 64.813 64.813 0 0 1 -92.16 1.11 63.333 63.333 0 0 1 -18.82-47.09 30.919 30.919 0 0 0 -8.13-21.66l48.9-47.91a31.683 31.683 0 0 0 21.79 7.76 64.487 64.487 0 0 1 47.1 18.43z"/><path d="m476.01 286.7a63.646 63.646 0 0 1 1.32 89.36 64.813 64.813 0 0 1 -92.16 1.11 63.3 63.3 0 0 1 -18.82-47.09 30.944 30.944 0 0 0 -8.13-21.67l48.89-47.9a31.725 31.725 0 0 0 21.8 7.76 64.5 64.5 0 0 1 47.1 18.43z"/><path d="m332.11 186.18-48.35 48.45a31.562 31.562 0 0 0 -21.87-8.06 64.466 64.466 0 0 1 -47.51-18.64 63.4 63.4 0 0 1 1.11-91.32c25.25-23.86 65.64-23.26 90.18 1.3a63.3 63.3 0 0 1 18.6 46.67 31.079 31.079 0 0 0 7.84 21.6z"/><path d="m153.59 203.23-48.35 48.46a31.5 31.5 0 0 0 -21.86-8.07 64.474 64.474 0 0 1 -47.52-18.64 63.408 63.408 0 0 1 1.12-91.32c25.24-23.86 65.63-23.26 90.18 1.3a63.248 63.248 0 0 1 18.59 46.67 31.143 31.143 0 0 0 7.84 21.6z"/></g><path d="m65.86 224.98a63.608 63.608 0 0 1 30.506-107.089 64.9 64.9 0 0 0 -59.386 15.769 63.408 63.408 0 0 0 -1.12 91.32 64.474 64.474 0 0 0 47.52 18.64 31.5 31.5 0 0 1 21.86 8.07l8.051-8.069a64.471 64.471 0 0 1 -47.431-18.641z" fill="#9191ba"/><path d="m103.691 161.437a5.979 5.979 0 0 1 -4.223-1.739 27.5 27.5 0 0 0 -3.389-2.855 6 6 0 0 1 6.965-9.773 39.619 39.619 0 0 1 4.871 4.105 6 6 0 0 1 -4.224 10.262z" fill="#f4f8fc"/><path d="m47.073 181.564c-.194 0-.389-.009-.587-.028a6 6 0 0 1 -5.391-6.552 38.9 38.9 0 0 1 11.336-23.809 39.472 39.472 0 0 1 35.058-10.713 6 6 0 1 1 -2.211 11.8 27.459 27.459 0 0 0 -24.4 7.441 26.877 26.877 0 0 0 -7.84 16.446 6 6 0 0 1 -5.965 5.415z" fill="#f4f8fc"/><path d="m282.207 144.386a5.981 5.981 0 0 1 -4.224-1.738 27.5 27.5 0 0 0 -3.386-2.855 6 6 0 1 1 6.961-9.774 39.475 39.475 0 0 1 4.873 4.106 6 6 0 0 1 -4.224 10.261z" fill="#f4f8fc"/><path d="m225.589 164.514a5.81 5.81 0 0 1 -.587-.029 6 6 0 0 1 -5.392-6.551 38.9 38.9 0 0 1 11.336-23.809 39.467 39.467 0 0 1 35.059-10.713 6 6 0 1 1 -2.211 11.795 27.458 27.458 0 0 0 -24.4 7.441 26.867 26.867 0 0 0 -7.84 16.446 6 6 0 0 1 -5.965 5.42z" fill="#f4f8fc"/></svg>