<svg id="Layer_1" height="512" viewBox="0 0 512 512" width="512" xmlns="http://www.w3.org/2000/svg" data-name="Layer 1"><path d="m495 275.32v106.27a11.572 11.572 0 0 1 -11.57 11.58h-13.51a11.572 11.572 0 0 1 -11.57-11.58v-106.27a11.57 11.57 0 0 1 11.57-11.57h13.51a11.57 11.57 0 0 1 11.57 11.57z" fill="#5a5a77"/><path d="m458.35 275.32v106.27a11.581 11.581 0 0 1 -11.58 11.58h-13.5a11.581 11.581 0 0 1 -11.58-11.58v-106.27a11.578 11.578 0 0 1 11.58-11.57h13.5a11.578 11.578 0 0 1 11.58 11.57z" fill="#6d6d93"/><path d="m410.12 264h-13.51a11.393 11.393 0 0 0 -11.61 11.32v106.27a11.462 11.462 0 0 0 11.61 11.41h13.51c6.39 0 11.88-5.01 11.88-11.41v-106.27c0-6.39-5.49-11.32-11.88-11.32z" fill="#5a5a77"/><path d="m238.59 264h-13.5a10.952 10.952 0 0 0 -11.09 11.32v106.27c0 6.4 4.69 11.41 11.09 11.41h13.5a11.292 11.292 0 0 0 11.41-11.41v-106.27a11.223 11.223 0 0 0 -11.41-11.32z" fill="#5a5a77"/><path d="m213.51 275.32v106.27a11.572 11.572 0 0 1 -11.57 11.58h-13.51a11.572 11.572 0 0 1 -11.57-11.58v-106.27a11.57 11.57 0 0 1 11.57-11.57h13.51a11.57 11.57 0 0 1 11.57 11.57z" fill="#6d6d93"/><path d="m176.86 275.32v106.27a11.574 11.574 0 0 1 -11.58 11.58h-13.5a11.581 11.581 0 0 1 -11.58-11.58v-106.27a11.578 11.578 0 0 1 11.58-11.57h13.5a11.572 11.572 0 0 1 11.58 11.57z" fill="#5a5a77"/><path d="m371.8 130.41v106.27a11.578 11.578 0 0 1 -11.58 11.57h-13.5a11.572 11.572 0 0 1 -11.58-11.57v-106.27a11.574 11.574 0 0 1 11.58-11.58h13.5a11.581 11.581 0 0 1 11.58 11.58z" fill="#5a5a77"/><path d="m335.14 130.41v106.27a11.57 11.57 0 0 1 -11.57 11.57h-13.51a11.57 11.57 0 0 1 -11.57-11.57v-106.27a11.572 11.572 0 0 1 11.57-11.58h13.51a11.572 11.572 0 0 1 11.57 11.58z" fill="#6d6d93"/><path d="m286.91 119h-13.5a11.292 11.292 0 0 0 -11.41 11.41v106.27a11.223 11.223 0 0 0 11.41 11.32h13.5a10.952 10.952 0 0 0 11.09-11.32v-106.27c0-6.4-4.69-11.41-11.09-11.41z" fill="#5a5a77"/><path d="m115.39 119h-13.51c-6.39 0-11.88 5.01-11.88 11.41v106.27c0 6.39 5.49 11.32 11.88 11.32h13.51a11.393 11.393 0 0 0 11.61-11.32v-106.27a11.462 11.462 0 0 0 -11.61-11.41z" fill="#5a5a77"/><path d="m90.31 130.41v106.27a11.578 11.578 0 0 1 -11.58 11.57h-13.5a11.578 11.578 0 0 1 -11.58-11.57v-106.27a11.581 11.581 0 0 1 11.58-11.58h13.5a11.581 11.581 0 0 1 11.58 11.58z" fill="#6d6d93"/><path d="m53.65 130.41v106.27a11.57 11.57 0 0 1 -11.57 11.57h-13.51a11.57 11.57 0 0 1 -11.57-11.57v-106.27a11.572 11.572 0 0 1 11.57-11.58h13.51a11.572 11.572 0 0 1 11.57 11.58z" fill="#5a5a77"/><path d="m250.16 302.65h134.88v51.62h-134.88z" fill="#a5bfce"/><path d="m126.96 157.73h134.88v51.62h-134.88z" fill="#a5bfce"/><g fill="#f4f8fc"><path d="m222.819 184.778h-55.664a6 6 0 0 1 0-12h55.664a6 6 0 0 1 0 12z"/><path d="m148.665 184.778h-5.357a6 6 0 0 1 0-12h5.357a6 6 0 0 1 0 12z"/></g></svg>