<svg id="Layer_1" height="512" viewBox="0 0 512 512" width="512" xmlns="http://www.w3.org/2000/svg" data-name="Layer 1"><g fill="#b0b5ca"><path d="m134.651 292.91h328.361v11.999h-328.361z" transform="matrix(.706 -.708 .708 .706 -123.835 299.237)"/><path d="m92.198 250.38h328.361v11.999h-328.361z" transform="matrix(.706 -.708 .708 .706 -106.196 256.707)"/><path d="m49.745 207.85h328.361v11.999h-328.361z" transform="matrix(.706 -.708 .708 .706 -88.557 214.177)"/></g><path d="m387.16 210.42a16.029 16.029 0 0 1 -.44 22.18l-16.39 16.42-7.44-37.83 1.23-1.23a15.964 15.964 0 0 1 22.6 0c.15.15.3.3.44.46z" fill="#88ced8"/><path d="m362.89 211.19 7.44 37.83-22.74 22.78-7.44-37.83z" fill="#a0eaea"/><path d="m340.15 233.97 7.44 37.83-22.75 22.79-7.44-37.83z" fill="#88ced8"/><path d="m317.4 256.76 7.44 37.83-22.74 22.78-7.44-37.83z" fill="#a0eaea"/><path d="m294.66 279.54 7.44 37.83-22.74 22.78-7.44-37.83z" fill="#88ced8"/><path d="m271.92 302.32 7.44 37.83-22.75 22.79-7.44-37.83z" fill="#a0eaea"/><path d="m249.17 325.11 7.44 37.83-22.74 22.78-7.44-37.83z" fill="#88ced8"/><path d="m210.51 387.39c-.16-.14-.32-.29-.47-.44a16.03 16.03 0 0 1 0-22.64l16.39-16.42 7.44 37.83-1.23 1.23a15.925 15.925 0 0 1 -22.13.44z" fill="#a0eaea"/><path d="m344.71 167.89a16.035 16.035 0 0 1 -.37 22.26l-16.39 16.41-7.44-37.83 1.23-1.23a15.964 15.964 0 0 1 22.6 0c.13.13.25.26.37.39z" fill="#88ced8"/><path d="m327.95 206.56-22.74 22.79-7.44-37.83 22.74-22.79z" fill="#a0eaea"/><path d="m297.77 191.52 7.44 37.83-22.75 22.78-7.44-37.83z" fill="#88ced8"/><path d="m282.46 252.13-22.74 22.79-7.44-37.84 22.74-22.78z" fill="#a0eaea"/><path d="m252.28 237.08 7.44 37.84-22.74 22.78-7.44-37.83z" fill="#88ced8"/><path d="m229.54 259.87 7.44 37.83-22.75 22.78-7.44-37.83z" fill="#a0eaea"/><path d="m214.23 320.48-22.74 22.79-7.44-37.83 22.74-22.79z" fill="#88ced8"/><path d="m168.05 344.87c-.13-.12-.26-.24-.39-.37a16.043 16.043 0 0 1 0-22.65l16.39-16.41 7.44 37.83-1.23 1.23a15.955 15.955 0 0 1 -22.21.37z" fill="#a0eaea"/><path d="m302.25 125.36a16.016 16.016 0 0 1 -.29 22.33l-16.39 16.42-7.44-37.83 1.23-1.23a15.946 15.946 0 0 1 22.6 0c.1.1.2.2.29.31z" fill="#88ced8"/><path d="m278.13 126.28 7.44 37.83-22.74 22.78-7.44-37.83z" fill="#a0eaea"/><path d="m255.39 149.06 7.44 37.83-22.75 22.79-7.44-37.83z" fill="#88ced8"/><path d="m232.64 171.85 7.44 37.83-22.74 22.78-7.44-37.83z" fill="#a0eaea"/><path d="m209.9 194.63 7.44 37.83-22.74 22.78-7.44-37.83z" fill="#88ced8"/><path d="m187.16 217.41 7.44 37.83-22.75 22.79-7.44-37.83z" fill="#a0eaea"/><path d="m164.41 240.2 7.44 37.83-22.74 22.78-7.44-37.83z" fill="#88ced8"/><path d="m125.6 302.34c-.11-.09-.22-.2-.32-.3a16.03 16.03 0 0 1 0-22.64l16.39-16.42 7.44 37.83-1.23 1.23a15.946 15.946 0 0 1 -22.28.3z" fill="#a0eaea"/><path d="m482.87 84.48-55.66-55.76a41.5 41.5 0 0 0 -58.68 0l-53.72 53.82 114.34 114.54 53.72-53.81a41.688 41.688 0 0 0 0-58.79zm-19.57 39.19-32.63 32.7-75.22-75.35 32.64-32.7a13.833 13.833 0 0 1 19.56 0l55.65 55.75a13.882 13.882 0 0 1 0 19.6z" fill="#6d7486"/><path d="m82.85 314.92-53.72 53.81a41.688 41.688 0 0 0 0 58.79l55.66 55.76a41.5 41.5 0 0 0 58.68 0l53.72-53.82zm41.06 148.76a13.833 13.833 0 0 1 -19.56 0l-55.65-55.75a13.882 13.882 0 0 1 0-19.6l32.63-32.7 75.22 75.35z" fill="#6d7486"/><path d="m427.21 28.72a41.5 41.5 0 0 0 -58.68 0l-53.72 53.82 20 20 57.3-57a41.5 41.5 0 0 1 54.387 2.5z" fill="#949caf"/><path d="m45.914 392.368 56.918-57.431-19.982-20.017-53.72 53.81a41.688 41.688 0 0 0 0 58.79l20 20a41.7 41.7 0 0 1 -3.216-55.152z" fill="#949caf"/><path d="m185.166 194.484a6 6 0 0 1 -4.242-10.242l60.576-60.574a6 6 0 1 1 8.484 8.485l-60.574 60.574a5.982 5.982 0 0 1 -4.244 1.757z" fill="#d4e1f4"/><path d="m260.229 119.421a6 6 0 0 1 -4.243-10.242l3.788-3.788a6 6 0 1 1 8.485 8.485l-3.788 3.788a5.982 5.982 0 0 1 -4.242 1.757z" fill="#d4e1f4"/></svg>