<svg id="Layer_1" height="512" viewBox="0 0 512 512" width="512" xmlns="http://www.w3.org/2000/svg" data-name="Layer 1"><g fill="#ffd8b7"><path d="m489.46 47.37a21.474 21.474 0 0 0 -30.08-4.47l-17.23 12.81a22.97 22.97 0 0 0 -30.21-34.35l-151.45 108.82-.03.01a2.518 2.518 0 0 1 .14.33c6.81 19.69 36.17 96.8 97.72 158.75 1.46-1.52 2.91-3.06 4.38-4.63l83.89-81.05a31.647 31.647 0 0 0 5.86-38.93l-3.44-5.97 23.39-20.16a20.142 20.142 0 0 0 -23.45-32.55l36.63-29.25a21.345 21.345 0 0 0 3.88-29.36z"/><path d="m207.83 159.34a90.678 90.678 0 0 1 11.69-6.93l.16-.04a1.772 1.772 0 0 0 .12.37 51.3 51.3 0 0 1 4.18 20.31c0 29.36-24.74 53.15-55.25 53.15a56.232 56.232 0 0 1 -39.26-15.75l-.13-.02c4.35-28.24 9.3-54.27 13.67-62.01l12.76-22.12a96.42 96.42 0 0 0 12.12-35.85l3.89-30.07a164.266 164.266 0 0 1 1.38-16.77c.76-4.44 2.06-7.73 4.59-9.87 17.07-14.51 37.93 12.26 40.89 31.21 4.07 26.03-3.72 77.57-10.83 94.37z"/><path d="m60.81 348.46-.44-.49-42 37.49 103.3 109.54 35.98-34.19z"/></g><path d="m260.6 130.52a2.518 2.518 0 0 0 -.14-.33 2.338 2.338 0 0 0 -3.22-.93l-17.02 9.61.45.8c6.8 19.7 39.1 103.66 100.66 165.61l.58.59q7.965-7.74 16.41-16.6c-61.55-61.95-90.91-139.06-97.72-158.75z" fill="#5c88e0"/><path d="m341.33 305.28.58.59c-32.88 31.93-59.35 49.79-75.3 56.16a54.756 54.756 0 0 0 -22.09 16.23l-71 67.47c-61.54-37.7-88-90.62-96.71-112.27l-.08-.09 32.61-29.11a23.359 23.359 0 0 0 9.71-16.35c1.86-15.97 5.75-47.94 10.29-77.48l.13.02a56.232 56.232 0 0 0 39.26 15.75c30.51 0 55.25-23.79 55.25-53.15a51.3 51.3 0 0 0 -4.18-20.31 1.772 1.772 0 0 1 -.12-.37 2.315 2.315 0 0 1 1.12-2.54l19.42-10.96.45.8c6.8 19.7 39.1 103.66 100.66 165.61z" fill="#80aaff"/><path d="m173.52 445.73-15.87 15.08c-61.64-37.7-88.12-90.69-96.84-112.35l-.44-.49 16.36-14.6.08.09c8.71 21.65 35.17 74.57 96.71 112.27z" fill="#5c88e0"/><path d="m267.9 149.692 5.943-3.291a78.086 78.086 0 0 0 7.7-4.873l147.771-106.168a22.967 22.967 0 0 1 17.441-4.015 22.947 22.947 0 0 0 -34.815-9.985l-151.45 108.82-.03.01a2.518 2.518 0 0 1 .14.33c1.421 4.108 3.828 10.724 7.3 19.172z" fill="#f2caad"/><path d="m147.1 221.968c4.256-27.279 9.045-52.034 13.288-59.548l12.76-22.12a96.42 96.42 0 0 0 12.12-35.85l3.89-30.07a164.266 164.266 0 0 1 1.38-16.77c.76-4.44 2.06-7.73 4.59-9.87 4.753-4.04 9.8-4.877 14.673-3.576-8.343-11.9-20.989-19.824-32.047-10.424-2.53 2.14-3.83 5.43-4.59 9.87a164.266 164.266 0 0 0 -1.38 16.77l-3.89 30.07a96.42 96.42 0 0 1 -12.12 35.85l-12.76 22.12c-4.37 7.74-9.32 33.77-13.67 62.01l.13.02a55.614 55.614 0 0 0 17.626 11.518z" fill="#f2caad"/><path d="m60.81 348.46-.44-.49-42 37.49 15.659 16.6 36.271-33.441a206.93 206.93 0 0 1 -9.49-20.159z" fill="#f2caad"/><path d="m86.554 354.107 40.16-35.847a23.359 23.359 0 0 0 9.71-16.35c1.86-15.97 5.75-47.94 10.29-77.48q.191-1.235.382-2.462a55.614 55.614 0 0 1 -17.626-11.518l-.13-.02c-4.54 29.54-8.43 61.51-10.29 77.48a23.359 23.359 0 0 1 -9.71 16.35l-32.61 29.11.08.09a207.017 207.017 0 0 0 9.744 20.647z" fill="#719bd8"/><path d="m70.3 368.619 16.258-14.512a207.017 207.017 0 0 1 -9.748-20.647l-.08-.09-16.36 14.6.44.49a206.93 206.93 0 0 0 9.49 20.159z" fill="#5783c9"/><path d="m173.078 414.149a6 6 0 0 1 -4.134-10.349l51.656-49.087a6 6 0 0 1 8.266 8.7l-51.657 49.087a5.976 5.976 0 0 1 -4.131 1.649z" fill="#f4f8fc"/><path d="m240.458 350.122a6 6 0 0 1 -4.134-10.35l4.06-3.857a6 6 0 1 1 8.266 8.7l-4.06 3.858a5.98 5.98 0 0 1 -4.132 1.649z" fill="#f4f8fc"/></svg>