<svg id="Layer_1" height="512" viewBox="0 0 512 512" width="512" xmlns="http://www.w3.org/2000/svg" data-name="Layer 1"><path d="m460.19 439.73a43.961 43.961 0 0 1 -84.92 22.78l-39.79-147.7 84.92-22.78z" fill="#6994fe"/><path d="m410.96 256.99-84.92 22.78 9.44 35.04 84.92-22.78z" fill="#c79a83"/><path d="m394.97 213.72-76.84 20.62 6.37 23.66 76.85-20.61z" fill="#80aaff"/><path d="m176.52 314.81-39.79 147.7a43.961 43.961 0 1 1 -84.92-22.78l39.79-147.7z" fill="#6994fe"/><path d="m101.04 256.99-9.44 35.04 84.92 22.78 9.44-35.04z" fill="#c79a83"/><path d="m117.03 213.72-6.38 23.67 76.85 20.61 6.37-23.66z" fill="#80aaff"/><path d="m185.64 88-39.42 133.115-.06.317 24.96 6.754 29.07-97.973z" fill="#c3cfdd"/><path d="m396.85 260.77-56.71 15.22-5.57-20.69 56.71-15.21z" fill="#6994fe"/><path d="m177.43 255.3-5.57 20.69-56.71-15.22 5.57-20.68z" fill="#6994fe"/><path d="m311.74 130.22-.08.02a70.357 70.357 0 0 1 -111.3-.13 69.626 69.626 0 0 1 -14.63-39.41c-.04-.76-.06-1.52-.07-2.27a70.4 70.4 0 0 1 140.5-7.35 82.076 82.076 0 0 0 3.09 15.83l36.37 124.45.06.22-24.96 6.7zm-11.16-42.98a44.55 44.55 0 1 0 -44.55 44.45 44.547 44.547 0 0 0 44.55-44.45z" fill="#d4e1f4"/><path d="m80.29 451.15a43.8 43.8 0 0 1 1.52-11.42l37.768-140.195-27.978-7.505-39.79 147.7a43.941 43.941 0 0 0 57.449 52.623 43.9 43.9 0 0 1 -28.969-41.203z" fill="#abc7ff"/><path d="m129.018 264.495-27.978-7.505-9.44 35.04 27.978 7.505z" fill="#e8baa6"/><g fill="#f4f8fc"><path d="m78.735 431.391a6.007 6.007 0 0 1 -5.786-7.6l22.839-82.564a6 6 0 1 1 11.566 3.2l-22.838 82.562a6.005 6.005 0 0 1 -5.781 4.402z"/><path d="m107.037 329.078a6 6 0 0 1 -5.786-7.6l1.428-5.164a6 6 0 1 1 11.566 3.2l-1.428 5.163a6 6 0 0 1 -5.78 4.401z"/></g></svg>