<svg id="Layer_1" height="512" viewBox="0 0 512 512" width="512" xmlns="http://www.w3.org/2000/svg" data-name="Layer 1"><path d="m90.52 233.74a175.278 175.278 0 0 1 .1-63.48c11.24-59.39 52.61-97.27 106.23-97.27 30.13 0 62.31 12.29 94.48 36.35 31.66-23.04 64.35-35.32 93.97-35.32 53.62 0 94.99 37.88 106.74 96.24 16.85 87.02-36.77 203.22-195.6 267.72a13.191 13.191 0 0 1 -10.22 0c-122.35-48.66-182.48-129.42-195.7-204.24z" fill="#e87187"/><path d="m120.52 233.74a175.278 175.278 0 0 1 .1-63.48c10.174-53.76 45.036-89.889 91.324-96.26a115.765 115.765 0 0 0 -15.094-1.01c-53.62 0-94.99 37.88-106.23 97.27a175.278 175.278 0 0 0 -.1 63.48c13.22 74.82 73.35 155.58 195.7 204.24a13.191 13.191 0 0 0 10.22 0c3.313-1.346 6.564-2.722 9.786-4.111-115.636-49.013-172.851-127.377-185.706-200.129z" fill="#ff94ab"/><path d="m189.656 311.473c-.142 0-.284 0-.427-.015a6 6 0 0 1 -5.113-3.679l-54.085-129.874-35.652 61.118a6 6 0 0 1 -5.179 2.977h-72.2a6 6 0 0 1 0-12h68.75l40-68.567a6 6 0 0 1 10.722.716l54.128 129.993 56.246-94.571a6 6 0 0 1 10.435.213l37.973 70.216h41.746a6 6 0 0 1 0 12h-45.323a6 6 0 0 1 -5.277-3.146l-34.642-64.062-56.946 95.748a6 6 0 0 1 -5.156 2.933z" fill="#49bdff"/><path d="m357.064 248.728a24.521 24.521 0 1 0 24.477 24.521 24.527 24.527 0 0 0 -24.477-24.521z" fill="#a0eaea"/><g fill="#f4f8fc"><path d="m461.188 265.814a6 6 0 0 1 -5.625-8.088c10.252-27.63 13.024-55.943 8.017-81.88-9.068-44.9-39.067-72.829-78.281-72.829a6 6 0 0 1 0-12c45.27 0 79.777 31.614 90.054 82.5 5.433 28.146 2.477 58.689-8.539 88.379a6 6 0 0 1 -5.626 3.918z"/><path d="m440.82 306.043a6 6 0 0 1 -5.027-9.267c3.045-4.691 5.912-9.512 8.522-14.332a6 6 0 1 1 10.552 5.714c-2.76 5.1-5.791 10.2-9.009 15.152a6 6 0 0 1 -5.038 2.733z"/></g></svg>