<svg id="Layer_1" height="512" viewBox="0 0 512 512" width="512" xmlns="http://www.w3.org/2000/svg" data-name="Layer 1"><path d="m415.42 226.41-45.83-54.17a182.568 182.568 0 0 0 -227.18 0l-45.75 54.55-.33.07a179.777 179.777 0 0 0 -22.27 86.94c0 100.07 81.46 181.2 181.94 181.2s181.94-81.13 181.94-181.2a179.845 179.845 0 0 0 -22.52-87.39z" fill="#636384"/><ellipse cx="256" cy="313.8" fill="#545472" rx="100.08" ry="99.68"/><path d="m104.06 313.8a179.777 179.777 0 0 1 22.27-86.94l.33-.07 45.75-54.55a181.461 181.461 0 0 1 98.59-39.025q-7.421-.6-15-.615a181.627 181.627 0 0 0 -113.59 39.64l-45.75 54.55-.33.07a179.777 179.777 0 0 0 -22.27 86.94c0 100.07 81.46 181.2 181.94 181.2 5.052 0 10.052-.215 15-.617-93.462-7.598-166.94-85.544-166.94-180.583z" fill="#8d8db2"/><path d="m375.1 147.16-15.74 71.66a28.192 28.192 0 0 0 55.09 12.01l15.75-71.66z" fill="#c96177"/><path d="m152.64 218.82-15.74-71.66-55.1 12.01 15.75 71.66a28.184 28.184 0 0 0 27.52 22.08 28.5 28.5 0 0 0 6.05-.65 28.084 28.084 0 0 0 21.52-33.44z" fill="#c96177"/><path d="m421.71 42.94a69.73 69.73 0 0 1 14.3 58.65l-11.81 56.27-44.08-9.6v-.01l11.72-55.85a25.076 25.076 0 0 0 -5.14-21.12 25.334 25.334 0 0 0 -19.71-9.34h-221.98a25.334 25.334 0 0 0 -19.71 9.34 25.076 25.076 0 0 0 -5.14 21.12l11.72 55.85v.01l-44.08 9.6-11.81-56.27a70.306 70.306 0 0 1 69.02-84.59h221.98a70.312 70.312 0 0 1 54.72 25.94z" fill="#b3d1e7"/><g fill="#f4f8fc"><path d="m219.246 263.619a6 6 0 0 1 -3.277-11.03 73.458 73.458 0 0 1 7.913-4.475 6 6 0 0 1 5.246 10.793 61.573 61.573 0 0 0 -6.617 3.741 5.97 5.97 0 0 1 -3.265.971z"/><path d="m214.018 372.221a5.975 5.975 0 0 1 -3.731-1.3 72.869 72.869 0 0 1 -10.887-103.558 6 6 0 1 1 9.246 7.65 60.868 60.868 0 0 0 9.115 86.512 6 6 0 0 1 -3.739 10.7z"/></g></svg>