<svg id="Layer_1" height="512" viewBox="0 0 512 512" width="512" xmlns="http://www.w3.org/2000/svg" data-name="Layer 1"><path d="m291.84 392.05-.05-.06-152.66.03-.02.02c-71.71 7.68-122.11 25.87-122.11 47.07 0 28.16 88.84 50.99 198.44 50.99s198.44-22.83 198.44-50.99c0-21.2-50.37-39.38-122.04-47.06z" fill="#e0eff9"/><path d="m47 439.11c0-21.2 50.4-39.39 122.11-47.07l.02-.02 122.67-.02v-.006l-152.66.03-.02.02c-71.72 7.676-122.12 25.866-122.12 47.066 0 28.16 88.84 50.99 198.44 50.99q7.569 0 15-.144c-102.592-1.971-183.44-23.983-183.44-50.846z" fill="#c9d9e2"/><path d="m398 174v-.16c-13-85.82-89.56-151.94-182.42-151.94-101.46 0-184.09 78.93-184.09 176.25 0 76.2 57.085 146.53 107.675 193.87 40.22 37.65 76.293 60.77 76.293 60.77s36.111-23.13 76.341-60.8c46.38-43.41 98.215-106.11 106.515-174.95zm-182.56 122.39a100.37 100.37 0 1 1 97.77-122.39l.23 43.04a100.274 100.274 0 0 1 -98 79.35z" fill="#fb6771"/><path d="m437.53 117.62a22.551 22.551 0 0 0 -22.53 22.6v110.55a22.5 22.5 0 1 0 45 0v-110.55a22.491 22.491 0 0 0 -22.47-22.6z" fill="#6d6d93"/><path d="m261.26 124.24a22.124 22.124 0 0 0 -15.815-6.62 22.47 22.47 0 0 0 -22.445 22.6v110.55a22.5 22.5 0 1 0 45 0v-110.55a22.635 22.635 0 0 0 -6.74-15.98z" fill="#6d6d93"/><path d="m495 162.09v66.8a17.461 17.461 0 0 1 -34.74 2.55v-71.89a17.461 17.461 0 0 1 34.74 2.54z" fill="#59597a"/><path d="m268.27 174h-.27v43h147v-43z" fill="#b3d1e7"/><path d="m222.57 159.57v71.82a17.458 17.458 0 0 1 -34.74-2.5v-66.8a17.459 17.459 0 0 1 34.74-2.52z" fill="#59597a"/><path d="m61.49 198.15c0-92.469 74.6-168.326 169.067-175.661-4.94-.382-9.933-.589-14.977-.589-101.46 0-184.09 78.93-184.09 176.25 0 76.2 57.085 146.53 107.675 193.87 40.22 37.65 76.293 60.77 76.293 60.77s5.672-3.637 15-10.351a630.973 630.973 0 0 1 -61.3-50.419c-50.583-47.34-107.668-117.67-107.668-193.87z" fill="#e05f6b"/><g id="_Group_" data-name=" Group "><g id="_Group_2" data-name=" Group 2"><g id="_Path_" data-name=" Path "><path d="m149.952 78.75a6 6 0 0 1 -2.494-11.46c4.388-2 8.922-3.83 13.478-5.431a6 6 0 1 1 3.98 11.32c-4.217 1.483-8.416 3.175-12.478 5.028a5.979 5.979 0 0 1 -2.486.543z" fill="#f4f8fc"/></g><g id="_Path_2" data-name=" Path "><path d="m62.779 210.827a6 6 0 0 1 -6-6 147.47 147.47 0 0 1 17.671-69.818 155.689 155.689 0 0 1 47.026-52.792 6 6 0 0 1 6.926 9.8 143.63 143.63 0 0 0 -43.392 48.691 133.6 133.6 0 0 0 -16.231 64.119 6 6 0 0 1 -6 6z" fill="#f4f8fc"/></g></g></g></svg>