<svg id="Layer_1" height="512" viewBox="0 0 512 512" width="512" xmlns="http://www.w3.org/2000/svg" data-name="Layer 1"><path d="m495 62.31v387.38a12 12 0 0 1 -12 12h-135.33a12 12 0 0 1 -12-12v-387.38a12 12 0 0 1 12-12h135.33a12 12 0 0 1 12 12z" fill="#f2d798"/><path d="m335.67 62.31v387.38a12.01 12.01 0 0 1 -12 12h-135.34a12.01 12.01 0 0 1 -12-12v-387.38a12.01 12.01 0 0 1 12-12h135.34a12.01 12.01 0 0 1 12 12z" fill="#b3cd99"/><path d="m176.33 62.31v387.38a12 12 0 0 1 -12 12h-135.33a12 12 0 0 1 -12-12v-387.38a12 12 0 0 1 12-12h135.33a12 12 0 0 1 12 12z" fill="#eb7288"/><path d="m468.82 76.6v358.8h-106.98v-358.8z" fill="#c1a978"/><path d="m309.49 76.6v358.8h-106.98v-358.8z" fill="#94a87b"/><path d="m150.16 76.6v358.8h-106.98v-358.8z" fill="#c96177"/><path d="m384.56 101.32h61.55v38.54h-61.55z" fill="#6994fe"/><path d="m225.23 101.32h61.54v38.54h-61.54z" fill="#6994fe"/><path d="m43.18 76.6h30v358.8h-30z" fill="#af566b"/><path d="m65.89 101.32h61.55v38.54h-61.55z" fill="#6994fe"/><g id="_Path_2" data-name=" Path 2"><path d="m283.314 274.591a6 6 0 0 1 -6-6v-25.182a6 6 0 1 1 12 0v25.182a6 6 0 0 1 -6 6z" fill="#d4e1f4"/></g><g id="_Rectangle_2" data-name=" Rectangle 2"><path d="m281.083 396.112h-50.166a6 6 0 1 1 0-12h50.166a6 6 0 0 1 0 12z" fill="#798962"/></g><g id="_Rectangle_2-2" data-name=" Rectangle 2"><path d="m281.083 416.681h-50.166a6 6 0 1 1 0-12h50.166a6 6 0 0 1 0 12z" fill="#798962"/></g><g id="_Path_2-2" data-name=" Path 2"><path d="m123.981 274.591a6 6 0 0 1 -6-6v-25.182a6 6 0 0 1 12 0v25.182a6 6 0 0 1 -6 6z" fill="#d4e1f4"/></g><g id="_Rectangle_2-3" data-name=" Rectangle 2"><path d="m121.75 396.112h-50.166a6 6 0 0 1 0-12h50.166a6 6 0 0 1 0 12z" fill="#8e4359"/></g><g id="_Rectangle_2-4" data-name=" Rectangle 2"><path d="m121.75 416.681h-50.166a6 6 0 0 1 0-12h50.166a6 6 0 1 1 0 12z" fill="#8e4359"/></g><g id="_Path_2-3" data-name=" Path 2"><path d="m442.647 274.591a6 6 0 0 1 -6-6v-25.182a6 6 0 0 1 12 0v25.182a6 6 0 0 1 -6 6z" fill="#d4e1f4"/></g><g id="_Rectangle_2-5" data-name=" Rectangle 2"><path d="m440.416 396.112h-50.166a6 6 0 0 1 0-12h50.166a6 6 0 0 1 0 12z" fill="#a58c62"/></g><g id="_Rectangle_2-6" data-name=" Rectangle 2"><path d="m440.416 416.681h-50.166a6 6 0 0 1 0-12h50.166a6 6 0 0 1 0 12z" fill="#a58c62"/></g><g fill="#f4f8fc"><path d="m66.258 288.2a6 6 0 0 1 -6-6v-85.663a6 6 0 0 1 12 0v85.663a6 6 0 0 1 -6 6z"/><path d="m66.258 182.046a6 6 0 0 1 -6-6v-5.357a6 6 0 0 1 12 0v5.357a6 6 0 0 1 -6 6z"/></g></svg>