<svg id="Layer_1" height="512" viewBox="0 0 512 512" width="512" xmlns="http://www.w3.org/2000/svg" data-name="Layer 1"><path d="m331.37 41.32 4.29 10.76a122.694 122.694 0 0 1 .25 90.17 13.157 13.157 0 0 0 -3.79-.55h-3.55v-23.81c0-10.79-3.04-19.31-8.31-26.31s-12.78-12.5-21.7-17.2c-4.04 15.88-22.37 21.66-44.37 21.66-20.28 0-37.44-3.98-43.16-18.01l-.09-.23c-14.72 10.12-24.36 20.88-24.36 40.09v23.81h-3.55a13.2 13.2 0 0 0 -5.51 1.19l-4.32-10.87a93.286 93.286 0 0 1 0-69.08l.67-1.69a14.566 14.566 0 0 1 13.53-9.17 17.549 17.549 0 0 0 17.55-17.54 17.539 17.539 0 0 1 13.53-17.08 16.6 16.6 0 0 1 5.88-.22c12.6 1.57 85.78 10.14 111.3-.24v8.95a29.519 29.519 0 0 1 -4.29 15.37z" fill="#6d7486"/><path d="m372.6 283.14a262.869 262.869 0 0 1 -33.163-10.99l-33.939-16.84a12.385 12.385 0 0 1 -6.498-10.73v-13.58l-85.922-.145-.078 15.685a12.18 12.18 0 0 1 -6.685 10.94l-33.673 15.72a243.665 243.665 0 0 1 -31.231 9.44 83.582 83.582 0 0 0 -64.411 81.24v131.12h358v-131.12a83.576 83.576 0 0 0 -62.4-80.74z" fill="#f4cba2"/><path d="m349.21 385.9a62.07 62.07 0 0 1 -10.21-33.48v-80.03l.235-.24a226.892 226.892 0 0 1 -23.393-11.18l-9.671-5.24-.171.05v48.35a50.176 50.176 0 0 1 -50.175 50.31 49.881 49.881 0 0 1 -49.825-50.31v-46.28l-14.125 7.01a198.944 198.944 0 0 1 -19 8.34l.127.21v79.01a60.973 60.973 0 0 1 -37 56.27v86.31h239.998v-86.31a63.049 63.049 0 0 1 -26.79-22.79z" fill="#e87187"/><path d="m299.27 233.79a70.992 70.992 0 0 1 -112.69-57.43v-8.06h-3.55a13.3 13.3 0 1 1 0-26.6h3.55v-23.81c0-19.21 9.64-29.97 24.36-40.09l.09.23c5.72 14.03 22.88 18.01 43.16 18.01 22 0 40.33-5.78 44.37-21.66 8.92 4.7 16.42 10.19 21.7 17.2s8.31 15.52 8.31 26.31v23.81h3.55a13.157 13.157 0 0 1 3.79.55 13.3 13.3 0 0 1 -3.79 26.05h-3.55v8.06a70.824 70.824 0 0 1 -29.3 57.43z" fill="#ffd8b7"/><path d="m172.873 273.2.127.21v79.01a60.973 60.973 0 0 1 -37 56.27v86.31h30v-82.507a6.035 6.035 0 0 1 3.345-5.375 60.911 60.911 0 0 0 33.655-54.698v-79.01l-.088-14.027-11.037 5.477a198.944 198.944 0 0 1 -19.002 8.34z" fill="#ff94ab"/><g fill="#f4f8fc"><path d="m101.258 477.2a6 6 0 0 1 -6-6v-75.664a6 6 0 0 1 12 0v75.664a6 6 0 0 1 -6 6z"/><path d="m101.258 381.046a6 6 0 0 1 -6-6v-5.357a6 6 0 0 1 12 0v5.357a6 6 0 0 1 -6 6z"/></g></svg>