<svg id="Layer_1" height="512" viewBox="0 0 512 512" width="512" xmlns="http://www.w3.org/2000/svg" data-name="Layer 1"><path d="m300.72 49.25v3.43a45.3 45.3 0 0 1 -44.73 45.28c-.2.01-.41.01-.61.01a45.324 45.324 0 0 1 -45.34-45.29v-35.36l90.68-.32z" fill="#5fa8ed"/><path d="m419.95 446.17v28.52l-.1.02a671.8 671.8 0 0 1 -327.7 0l-.1-.02v-28.29a671.807 671.807 0 0 0 327.85-.22z" fill="#84a0a3"/><path d="m419.95 446.17-.05.01a671.807 671.807 0 0 1 -327.85.22l75.07-37.41h.01c.74 6.62 40.25 11.96 88.87 11.96 48.11 0 87.29-5.22 88.84-11.75z" fill="#a4bdc1"/><path d="m272.51 397h-.13l-32.76-.075c-41.27 1.06-72.51 5.977-72.51 11.907a.518.518 0 0 0 .02.174c.74 6.62 40.25 11.952 88.87 11.952 48.11 0 87.29-5.224 88.84-11.754a1.309 1.309 0 0 0 .05-.337c0-5.93-31.18-10.867-72.38-11.867z" fill="#747a91"/><path d="m212 292v.32 31.68h88v-31.68-.32z" fill="#747a91"/><path d="m371.4 153.4-.1-.03-15.01 21.235a34.747 34.747 0 0 1 -28.97 15.395h-45.47a5.882 5.882 0 0 1 -4.24-1.665l-21.61-21.535-21.61 21.509a5.9 5.9 0 0 1 -4.24 1.691h-45.9a34.764 34.764 0 0 1 -28.6-14.855l-14.73-19.682 4.85 18.513a303.692 303.692 0 0 1 9.93 78.742l-.15 27.221a11.993 11.993 0 0 0 11.98 12.061h176.88a12 12 0 0 0 11.98-12.115l-.29-25.862a303.254 303.254 0 0 1 10.15-81.217z" fill="#5fa8ed"/><path d="m256 99.16v67.69l-21.61 21.58a5.97 5.97 0 0 1 -4.24 1.76h-45.9a34.853 34.853 0 0 1 -28.6-14.95l-14.73-19.73-.01-.01-16.02-61.05a35.994 35.994 0 0 1 5.73-30.33l.04-.05a36.064 36.064 0 0 1 29.15-14.82h50.23v3.43a45.324 45.324 0 0 0 45.34 45.29c.2 0 .41 0 .61-.01z" fill="#7fbcef"/><path d="m381.34 64.07a35.965 35.965 0 0 1 5.7 30.43l-15.64 58.9-.1-.03-15.01 21.33a34.836 34.836 0 0 1 -28.97 15.49h-45.47a5.97 5.97 0 0 1 -4.24-1.76l-21.61-21.58v-67.69l-.01-1.2a45.3 45.3 0 0 0 44.73-45.28v-3.43h51.47a36.059 36.059 0 0 1 29.15 14.82z" fill="#4689d3"/><path d="m240 324v79h32v-78.68-.32z" fill="#b0b5ca"/><path d="m240.04 52.68v-35.36l60.68-.214v-.106l-90.68.32v35.36a45.324 45.324 0 0 0 45.34 45.29c.2 0 .41 0 .61-.01a45.225 45.225 0 0 0 14.382-2.542 45.321 45.321 0 0 1 -30.332-42.738z" fill="#559ac9"/><path d="m185.55 279.939.15-27.221a303.638 303.638 0 0 0 -6.266-63.06 34.675 34.675 0 0 1 -23.784-14.513l-14.73-19.682 4.85 18.513a303.692 303.692 0 0 1 9.93 78.742l-.15 27.221a11.993 11.993 0 0 0 11.98 12.061h30a11.993 11.993 0 0 1 -11.98-12.061z" fill="#4f92c9"/><path d="m185.65 175.24-14.73-19.73-.01-.01-16.02-61.05a35.994 35.994 0 0 1 5.73-30.33l.04-.05a36.064 36.064 0 0 1 29.15-14.82h-30a36.064 36.064 0 0 0 -29.15 14.82l-.04.05a35.994 35.994 0 0 0 -5.73 30.33l16.02 61.05.01.01 14.73 19.73a34.853 34.853 0 0 0 28.6 14.95h30a34.853 34.853 0 0 1 -28.6-14.95z" fill="#5fa8ed"/><g fill="#f4f8fc"><path d="m173.842 169.674a6 6 0 0 1 -5.8-4.479l-11.942-45.515a6 6 0 1 1 11.606-3.046l11.946 45.515a6 6 0 0 1 -5.807 7.525z"/><path d="m156.884 105.063a6 6 0 0 1 -5.8-4.479l-2-7.61a6 6 0 1 1 11.607-3.046l2 7.611a6 6 0 0 1 -5.807 7.524z"/></g></svg>