<svg id="Layer_1" height="512" viewBox="0 0 512 512" width="512" xmlns="http://www.w3.org/2000/svg" data-name="Layer 1"><path d="m489.68 376.57-.26.11a61.916 61.916 0 0 1 -56.14 36.32h-303.28l-47.55 50 350.83.33c34.1 0 61.11-28.38 61.11-63.16a61.537 61.537 0 0 0 -4.71-23.6z" fill="#b3d1e7"/><path d="m434 222h-303l-1 191h303.28a61.916 61.916 0 0 0 56.14-36.32l.26-.11z" fill="#96c5e2"/><path d="m434 176v46h-303.45l-.02-46z" fill="#b3d1e7"/><path d="m493.13 111.485c0-34.78-28.13-62.795-61.13-62.795v288.32c25.09 0 48.09 16.325 57.68 39.475a62.411 62.411 0 0 1 4.71 23.515h.33z" fill="#6994fe"/><path d="m140.51 111.71c0-34.78-27.76-62.915-61.86-62.915s-61.96 28.217-61.96 63l.41 288.333c0-34.77 27.64-63.063 61.75-63.063 33.81 0 61.27 27.937 61.75 61.937h.01z" fill="#6994fe"/><path d="m82.45 463c-1.19.07-2.39.11-3.6.11-34.11 0-61.75-28.19-61.75-62.97s27.64-62.96 61.75-62.96c33.81 0 61.27 27.69 61.75 62.04.01.3.01.61.01.92a64.632 64.632 0 0 1 -1.25 12.69c-5.53 27.54-28.68 48.52-56.91 50.17z" fill="#5c88e0"/><path d="m78.85 361.16c21.12 0 38.23 17.45 38.23 38.98s-17.11 38.98-38.23 38.98-38.23-17.45-38.23-38.98 17.12-38.98 38.23-38.98z" fill="#80aaff"/><path d="m78.85 386.59a13.558 13.558 0 1 1 -13.29 13.55 13.432 13.432 0 0 1 13.29-13.55z" fill="#5c88e0"/><path d="m52.779 54.575a63.133 63.133 0 0 0 -36.089 57.217l.41 288.334a63.341 63.341 0 0 1 29.966-54.059l-.376-264.275a63.463 63.463 0 0 1 6.089-27.217z" fill="#92b6ff"/><g fill="#f4f8fc"><path d="m45.553 239.191a6 6 0 0 1 -6-6v-105.664a6 6 0 1 1 12 0v105.664a6 6 0 0 1 -6 6z"/><path d="m45.553 113.036a6 6 0 0 1 -6-6v-5.357a6 6 0 0 1 12 0v5.357a6 6 0 0 1 -6 6z"/></g></svg>