<svg id="Layer_1" height="512" viewBox="0 0 512 512" width="512" xmlns="http://www.w3.org/2000/svg" data-name="Layer 1"><path d="m490.83 48.96v274.85h-469.66v-274.85a31.985 31.985 0 0 1 32.01-31.96h405.64a31.985 31.985 0 0 1 32.01 31.96z" fill="#80aaff"/><path d="m328.93 395.33-.59 65.23h-144.68l-.59-65.23z" fill="#b0b5ca"/><path d="m450.78 112.49a8.758 8.758 0 0 1 0 12.37l-7.22 7.21a8.739 8.739 0 0 1 -12.37 0l-56.77-56.77a8.745 8.745 0 0 1 0-12.36l7.22-7.22a8.745 8.745 0 0 1 12.36 0z" fill="#59597a"/><path d="m431.19 132.07a8.739 8.739 0 0 1 0 12.37l-7.21 7.22a8.758 8.758 0 0 1 -12.37 0l-56.77-56.78a8.745 8.745 0 0 1 0-12.36l7.22-7.22a8.745 8.745 0 0 1 12.36 0z" fill="#6d6d93"/><path d="m411.61 151.66-56.77-56.78a8.745 8.745 0 0 0 -12.36 0l-7.22 7.22a8.758 8.758 0 0 0 0 12.37l56.77 56.77a8.758 8.758 0 0 0 12.37 0l7.21-7.22a8.727 8.727 0 0 0 0-12.36z" fill="#59597a"/><path d="m307.54 100.89a8.758 8.758 0 0 1 0 12.37l-7.22 7.21a8.727 8.727 0 0 1 -12.36 0l-56.78-56.77a8.745 8.745 0 0 1 0-12.36l7.22-7.22a8.758 8.758 0 0 1 12.37 0z" fill="#59597a"/><path d="m287.96 120.47a8.758 8.758 0 0 1 0 12.37l-7.22 7.22a8.758 8.758 0 0 1 -12.37 0l-56.77-56.78a8.745 8.745 0 0 1 0-12.36l7.22-7.22a8.745 8.745 0 0 1 12.36 0z" fill="#6d6d93"/><path d="m268.37 140.06-56.77-56.78a8.745 8.745 0 0 0 -12.36 0l-7.22 7.22a8.758 8.758 0 0 0 0 12.37l56.77 56.77a8.758 8.758 0 0 0 12.37 0l7.21-7.22a8.727 8.727 0 0 0 0-12.36z" fill="#59597a"/><path d="m276.673 159.385h101.894v38.99h-101.894z" fill="#b0b5ca" transform="matrix(.707 -.707 .707 .707 -30.53 284.055)"/><path d="m319.98 243.29-56.77-56.77a8.739 8.739 0 0 0 -12.37 0l-7.21 7.21a8.739 8.739 0 0 0 0 12.37l56.77 56.77a8.727 8.727 0 0 0 12.36 0l7.22-7.21a8.758 8.758 0 0 0 0-12.37z" fill="#59597a"/><path d="m300.4 262.87a8.758 8.758 0 0 1 0 12.37l-7.22 7.21a8.727 8.727 0 0 1 -12.36 0l-56.78-56.77a8.745 8.745 0 0 1 0-12.36l7.22-7.22a8.758 8.758 0 0 1 12.37 0z" fill="#6d6d93"/><path d="m280.82 282.45a8.758 8.758 0 0 1 0 12.37l-7.22 7.22a8.758 8.758 0 0 1 -12.37 0l-56.77-56.78a8.745 8.745 0 0 1 0-12.36l7.22-7.22a8.745 8.745 0 0 1 12.36 0z" fill="#59597a"/><path d="m133.438 147.783h101.894v39.004h-101.894z" fill="#b0b5ca" transform="matrix(.707 -.707 .707 .707 -64.283 179.377)"/><path d="m176.74 231.69-56.77-56.77a8.739 8.739 0 0 0 -12.37 0l-7.21 7.21a8.739 8.739 0 0 0 0 12.37l56.77 56.77a8.727 8.727 0 0 0 12.36 0l7.22-7.21a8.758 8.758 0 0 0 0-12.37z" fill="#59597a"/><path d="m157.16 251.27a8.758 8.758 0 0 1 0 12.37l-7.22 7.21a8.727 8.727 0 0 1 -12.36 0l-56.77-56.77a8.727 8.727 0 0 1 0-12.36l7.21-7.22a8.758 8.758 0 0 1 12.37 0z" fill="#6d6d93"/><path d="m137.58 270.85a8.758 8.758 0 0 1 0 12.37l-7.22 7.21a8.727 8.727 0 0 1 -12.36 0l-56.78-56.77a8.745 8.745 0 0 1 0-12.36l7.22-7.22a8.758 8.758 0 0 1 12.37 0z" fill="#59597a"/><path d="m348.97 460h-185.94a35.221 35.221 0 0 0 -25.1 10.16 34.786 34.786 0 0 0 -10.4 24.84h256.94c0-19.57-15.89-35-35.5-35z" fill="#ccd3df"/><path d="m21 324v40.37c0 17.65 14.5 31.63 32.18 31.63h405.64c17.68 0 32.18-13.98 32.18-31.63v-40.37z" fill="#ccd3df"/><ellipse cx="256" cy="359.68" fill="#6d7486" rx="12.45" ry="12.43"/><path d="m52.17 48.96a31.985 31.985 0 0 1 32.01-31.96h-31a31.985 31.985 0 0 0 -32.01 31.96v274.85h31z" fill="#aecdff"/><path d="m52 364.37v-40.37h-31v40.37c0 17.65 14.5 31.63 32.18 31.63h31c-17.68 0-32.18-13.98-32.18-31.63z" fill="#e2e4ed"/><g fill="#f4f8fc"><path d="m52 209.3a6 6 0 0 1 -6-6v-121.758a6 6 0 0 1 12 0v121.758a6 6 0 0 1 -6 6z"/><path d="m52 68.857a6 6 0 0 1 -6-6v-4.884a6 6 0 0 1 12 0v4.884a6 6 0 0 1 -6 6z"/></g></svg>