<svg id="Layer_1" height="512" viewBox="0 0 512 512" width="512" xmlns="http://www.w3.org/2000/svg" data-name="Layer 1"><path d="m269.48 91h-216.16c-16.48 0-30.32 12.89-30.32 29.38v338.81c0 16.48 13.84 29.81 30.32 29.81h216.16a29.537 29.537 0 0 0 29.52-29.81v-338.81a29.167 29.167 0 0 0 -29.52-29.38z" fill="#b3d1e7"/><circle cx="161.5" cy="382" fill="#5fcda4" r="56"/><path d="m185.88 381.91-31.93 23.95v-47.89z" fill="#eadf53"/><path d="m264.65 144.4v102.29a11.945 11.945 0 0 1 -11.94 11.94h-182.61a11.939 11.939 0 0 1 -11.94-11.94v-102.29a11.933 11.933 0 0 1 11.94-11.94h182.61a11.939 11.939 0 0 1 11.94 11.94z" fill="#eb7288"/><path d="m53 459.19v-338.81c0-16.49 13.84-29.38 30.32-29.38h-30c-16.48 0-30.32 12.89-30.32 29.38v338.81c0 16.48 13.84 29.81 30.32 29.81h30c-16.48 0-30.32-13.33-30.32-29.81z" fill="#cfedff"/><path d="m88.16 246.69v-102.29a11.933 11.933 0 0 1 11.94-11.94h-30a11.933 11.933 0 0 0 -11.94 11.94v102.29a11.939 11.939 0 0 0 11.94 11.94h30a11.939 11.939 0 0 1 -11.94-11.94z" fill="#d3667d"/><path d="m48.932 445.929a6 6 0 0 1 -6-6v-112.3a6 6 0 0 1 12 0v112.3a6 6 0 0 1 -6 6z" fill="#9fbcce"/><path d="m48.932 313.036a6 6 0 0 1 -6-6v-8.236a6 6 0 0 1 12 0v8.24a6 6 0 0 1 -6 5.996z" fill="#9fbcce"/><g id="_Path_4" data-name=" Path 4"><path d="m113.358 236.685h-18.074a6 6 0 1 1 0-12h18.074a6 6 0 0 1 0 12z" fill="#eadf53"/></g><g id="_Path_6" data-name=" Path 6"><path d="m113.358 219.158h-18.074a6 6 0 0 1 0-12h18.074a6 6 0 0 1 0 12z" fill="#eadf53"/></g><g id="_Path_8" data-name=" Path 8"><path d="m113.358 201.63h-18.074a6 6 0 1 1 0-12h18.074a6 6 0 0 1 0 12z" fill="#eadf53"/></g><g id="_Path_9" data-name=" Path 9"><path d="m152.387 236.511h-18.075a6 6 0 0 1 0-12h18.075a6 6 0 0 1 0 12z" fill="#eadf53"/></g><g id="_Path_11" data-name=" Path 11"><path d="m152.387 218.984h-18.075a6 6 0 0 1 0-12h18.075a6 6 0 0 1 0 12z" fill="#eadf53"/></g><g id="_Path_13" data-name=" Path 13"><path d="m152.387 201.457h-18.075a6 6 0 0 1 0-12h18.075a6 6 0 0 1 0 12z" fill="#eadf53"/></g><g id="_Path_15" data-name=" Path 15"><path d="m152.387 183.93h-18.075a6 6 0 0 1 0-12h18.075a6 6 0 0 1 0 12z" fill="#eadf53"/></g><g id="_Path_17" data-name=" Path 17"><path d="m152.387 166.4h-18.075a6 6 0 0 1 0-12h18.075a6 6 0 0 1 0 12z" fill="#eadf53"/></g><g id="_Path_20" data-name=" Path 20"><path d="m191.415 236.685h-18.074a6 6 0 0 1 0-12h18.074a6 6 0 1 1 0 12z" fill="#eadf53"/></g><g id="_Path_22" data-name=" Path 22"><path d="m191.415 219.158h-18.074a6 6 0 0 1 0-12h18.074a6 6 0 0 1 0 12z" fill="#eadf53"/></g><g id="_Path_24" data-name=" Path 24"><path d="m191.415 201.63h-18.074a6 6 0 0 1 0-12h18.074a6 6 0 0 1 0 12z" fill="#eadf53"/></g><g id="_Path_26" data-name=" Path 26"><path d="m191.415 184.1h-18.074a6 6 0 0 1 0-12h18.074a6 6 0 1 1 0 12z" fill="#eadf53"/></g><g id="_Path_28" data-name=" Path 28"><path d="m227.523 236.685h-18.074a6 6 0 0 1 0-12h18.074a6 6 0 0 1 0 12z" fill="#eadf53"/></g><g id="_Path_22-2" data-name=" Path 22"><path d="m227.226 219.158h-18.075a6 6 0 0 1 0-12h18.075a6 6 0 0 1 0 12z" fill="#eadf53"/></g><path d="m441 138v139.033a9 9 0 1 1 -18 0v-37.733c0-13.3-11.233-24.3-24.529-24.3h-19.853a11.562 11.562 0 0 1 -11.618-11.937v-39.063h-12v39.063a23.571 23.571 0 0 0 23.618 23.937h19.853a12.645 12.645 0 0 1 12.529 12.3v37.738a20.577 20.577 0 0 0 15 20.187v169.421a22.5 22.5 0 0 1 -45 0v-59.587a37.054 37.054 0 0 0 -37.319-37.059h-35.681v12h35.681a25.041 25.041 0 0 1 25.319 25.059v59.587a34.5 34.5 0 0 0 69 0v-169.546c8-2.659 15-10.651 15-20.071v-139.029z" fill="#d4e1f4"/><path d="m485.09 22.03a30.783 30.783 0 0 0 -17.1-5.03c-17.335.11-30.99 14.67-30.99 32.01v74.99h20v-44.86a.988.988 0 0 1 1.3-1.04 30.619 30.619 0 0 0 10.5 1.51 31.718 31.718 0 0 0 16.4-5.1 8.186 8.186 0 0 0 3.8-6.68v-39.08a8.253 8.253 0 0 0 -3.91-6.72z" fill="#eb7288"/><path d="m446.61 148.31c-5.58 0-10.1-4.52-10.1-7.57v-16.87h20.2v14.34a10.106 10.106 0 0 1 -10.1 10.1z" fill="#5fcda4"/><path d="m370.6 149.2v16.87c0 3.06-4.52 7.58-10.1 7.58a10.106 10.106 0 0 1 -10.09-10.1v-14.35z" fill="#5fcda4"/><path d="m370.6 74.34v74.86h-20.19v-44.72a1.1 1.1 0 0 0 -1.44-1.04 31.612 31.612 0 0 1 -10.57 1.51 31.108 31.108 0 0 1 -16.2-5.11 7.971 7.971 0 0 1 -3.61-6.67v-39.09a8.023 8.023 0 0 1 3.67-6.71 31.234 31.234 0 0 1 17.23-5.04c17.33.11 31.11 14.68 31.11 32.01z" fill="#eb7288"/><path d="m317.44 348.78v54.66a4.005 4.005 0 0 1 -4 4h-14.11v-62.66h14.11a4.012 4.012 0 0 1 4 4z" fill="#8aafc4"/></svg>