<svg id="Layer_1" height="512" viewBox="0 0 512 512" width="512" xmlns="http://www.w3.org/2000/svg" data-name="Layer 1"><path d="m454 99h-373.05l1.05 353.78v.22l368.494-1.24a4.887 4.887 0 0 0 4.9-4.7z" fill="#eaeaea"/><path d="m453.16 17 .38 82.37h-372.59l-.38-80.74z" fill="#a5bfce"/><path d="m108.95 99h-27.16-.84l1.05 353.78v.22l28-.094v-.126z" fill="#dbdbdb"/><path d="m108.57 18.63h-28l.38 80.74h.84 27.16z" fill="#97aeba"/><g fill="#889faa"><path d="m419.28 58.59a14.01 14.01 0 1 1 -14.07-13.94 14.011 14.011 0 0 1 14.07 13.94z"/><path d="m363.99 58.83a14.01 14.01 0 1 1 -14.07-13.94 14.011 14.011 0 0 1 14.07 13.94z"/><path d="m308.7 59.07a14.01 14.01 0 1 1 -14.07-13.94 14 14 0 0 1 14.07 13.94z"/><path d="m253.41 59.31a14.01 14.01 0 1 1 -14.07-13.94 14 14 0 0 1 14.07 13.94z"/><path d="m198.12 59.55a14.01 14.01 0 1 1 -14.07-13.94 14 14 0 0 1 14.07 13.94z"/><path d="m142.83 59.79a14.01 14.01 0 1 1 -14.07-13.93 14 14 0 0 1 14.07 13.93z"/></g><path d="m58.07 446.59 24.56 48.41 24.04-48.62z" fill="#c79a83"/><path d="m105.43 243.96.17 27.43-48.56.21h-.04l-.17-27.43a24.361 24.361 0 0 1 24.19-24.39h.11c.13 0 .25 0 .38.01a24.359 24.359 0 0 1 23.92 24.17z" fill="#acc490"/><path d="m105.6 271.39 1.07 174.99-48.6.21-1.07-174.99h.04z" fill="#eb7288"/><path d="m380.475 352.9a24.853 24.853 0 0 0 -24.767 24.9l.43 74.37 98.862-99.57v-.03z" fill="#c9c9c9"/><path d="m173.86 169.78v96.04a11.758 11.758 0 0 1 -11.76 11.75h-13.75a11.749 11.749 0 0 1 -11.75-11.75v-96.04a11.749 11.749 0 0 1 11.75-11.75h13.75a11.758 11.758 0 0 1 11.76 11.75z" fill="#59597a"/><rect fill="#6d6d93" height="120" rx="11.75" width="37" x="174" y="158"/><path d="m362 169.75a11.755 11.755 0 0 0 -11.76-11.75h-13.48a11.755 11.755 0 0 0 -11.76 11.75v96.5a11.755 11.755 0 0 0 11.76 11.75h13.48a11.755 11.755 0 0 0 11.76-11.75z" fill="#6d6d93"/><rect fill="#59597a" height="119.54" rx="11.75" width="37.25" x="361.89" y="158.03"/><path d="m211.11 197.49h113.52v40.63h-113.52z" fill="#b3d1e7"/><path d="m86.07 446.59-.001-.121-27.999.121 24.56 48.41 13.82-27.95z" fill="#e1b7a3"/><path d="m85 271.479-.17-27.309a24.287 24.287 0 0 1 10.3-19.916 24.127 24.127 0 0 0 -13.62-4.464c-.13-.01-.25-.01-.38-.01h-.11a24.361 24.361 0 0 0 -24.19 24.39l.17 27.43h.04z" fill="#d3e8b8"/><path d="m86.069 446.469-1.072-174.99-27.957.121h-.04l1.07 174.99z" fill="#ff8da6"/><path d="m155.341 386.068a6 6 0 0 1 -.025-12l2.718-.012h.026a6 6 0 0 1 .025 12l-2.717.012z" fill="#afafaf"/><path d="m185.181 385.938a6 6 0 0 1 -.025-12l20.535-.09h.026a6 6 0 0 1 .026 12l-20.535.09z" fill="#afafaf"/><path d="m233.278 385.728a6 6 0 0 1 -.031-12l122.4-.643h.032a6 6 0 0 1 .03 12l-122.4.643z" fill="#afafaf"/><path d="m155.088 328.187a6 6 0 0 1 -.025-12l2.718-.012a6 6 0 0 1 .052 12l-2.718.012z" fill="#afafaf"/><path d="m184.928 328.057a6 6 0 0 1 -.026-12l20.536-.09a6 6 0 1 1 .052 12l-20.535.09z" fill="#afafaf"/><path d="m233.025 327.847a6 6 0 0 1 -.026-12l147.2-.643h.027a6 6 0 0 1 .026 12l-147.2.643z" fill="#afafaf"/><path d="m57.981 46.38a6 6 0 0 1 -6-6v-3.98a6 6 0 0 1 12 0v3.98a6 6 0 0 1 -6 6z" fill="#d4e1f4"/><path d="m57.981 189.517a6 6 0 0 1 -6-6v-120.931a6 6 0 0 1 12 0v120.931a6 6 0 0 1 -6 6z" fill="#d4e1f4"/></svg>