<svg id="Layer_1" height="512" viewBox="0 0 512 512" width="512" xmlns="http://www.w3.org/2000/svg" data-name="Layer 1"><path d="m407.3 163.08a78.918 78.918 0 0 0 -36.833-29.98l-228.906-.01c-30.295 12.15-50.561 42.52-50.561 75.93v245.21a40.657 40.657 0 0 0 40.65 40.77h248.7a40.657 40.657 0 0 0 40.65-40.77v-245.21a83.107 83.107 0 0 0 -13.7-45.94z" fill="#bad79d"/><path d="m370.5 90.04v43.06l-229-.01v-43.05z" fill="#a5bc8a"/><path d="m371.45 17h-230.9a12.507 12.507 0 0 0 -12.55 12.23v60.77h256v-60.77a12.507 12.507 0 0 0 -12.55-12.23z" fill="#59597a"/><path d="m421.15 220.41v213.21h-238.71v-213.21z" fill="#f1ce7c"/><rect fill="#59597a" height="101.16" rx="13.56" width="27.14" x="341.41" y="277.27"/><rect fill="#59597a" height="101.16" rx="13.56" width="27.14" x="242.18" y="277.27"/><rect fill="#6d6d93" height="60.39" rx="13.56" width="27.14" x="368.55" y="297.66"/><path d="m242.18 311.22v33.27a13.559 13.559 0 0 1 -13.56 13.56h-.02a13.565 13.565 0 0 1 -13.56-13.56v-33.27a13.565 13.565 0 0 1 13.56-13.56h.02a13.559 13.559 0 0 1 13.56 13.56z" fill="#6d6d93"/><path d="m341.41 315.36v24.99h-71.93-.16v-24.99h.16z" fill="#b0b5ca"/><path d="m121 454.23v-245.21c0-33.409 20.265-63.778 50.553-75.929h-30c-30.287 12.149-50.553 42.519-50.553 75.929v245.21a40.657 40.657 0 0 0 40.65 40.77h30a40.657 40.657 0 0 1 -40.65-40.77z" fill="#dbf4be"/><path d="m171.556 133.09h-.056v-43.05h-30v43.05h.056l29.997.001z" fill="#bed3a3"/><path d="m158 29.23a12.507 12.507 0 0 1 12.55-12.23h-30a12.507 12.507 0 0 0 -12.55 12.23v60.77h30z" fill="#767699"/><g fill="#96a87e"><path d="m119.258 362.2a6 6 0 0 1 -6-6v-105.663a6 6 0 0 1 12 0v105.663a6 6 0 0 1 -6 6z"/><path d="m119.258 236.046a6 6 0 0 1 -6-6v-5.357a6 6 0 0 1 12 0v5.357a6 6 0 0 1 -6 6z"/></g></svg>