<svg id="Layer_1" height="512" viewBox="0 0 512 512" width="512" xmlns="http://www.w3.org/2000/svg" data-name="Layer 1"><path d="m405 340h61v20h-61z" fill="#9ac5a1"/><path d="m465.94 359.74v104.79a30.515 30.515 0 0 1 -61.03 0v-104.79z" fill="#75967a"/><path d="m107.09 359.74v104.79a30.515 30.515 0 0 1 -61.03 0v-104.79z" fill="#75967a"/><path d="m46 340h61v20h-61z" fill="#9ac5a1"/><path d="m415.05 320.33h40.75v20.11h-40.75z" fill="#7c7e38"/><path d="m56.2 320.33h40.75v20.11h-40.75z" fill="#7c7e38"/><path d="m76.06 464.53v-104.53h-30v104.53a30.518 30.518 0 0 0 45.513 26.532 30.451 30.451 0 0 1 -15.513-26.532z" fill="#97ba9b"/><path d="m76 340h-30v20h.06 29.94z" fill="#c5efca"/><path d="m256 494.71a90.02 90.02 0 0 1 -89.976-89.859v-340.156a41.775 41.775 0 0 0 -41.76-41.695h-1.05a41.776 41.776 0 0 0 -41.761 41.695v240.09h-12v-240.09a53.789 53.789 0 0 1 53.761-53.695h1.05a53.788 53.788 0 0 1 53.76 53.695v340.156a77.976 77.976 0 0 0 155.952 0v-340.156a53.761 53.761 0 0 1 107.521 0v240.09h-12v-240.09a41.761 41.761 0 0 0 -83.521 0v340.156a90.02 90.02 0 0 1 -89.976 89.859z" fill="#d4e1f4"/><path d="m65.592 460.534a6 6 0 0 1 -6-6v-51.664a6 6 0 0 1 12 0v51.664a6 6 0 0 1 -6 6z" fill="#f4f8fc"/><path d="m65.592 391.379a6 6 0 0 1 -6-6v-5.357a6 6 0 0 1 12 0v5.357a6 6 0 0 1 -6 6z" fill="#f4f8fc"/><g fill="#75967a"><path d="m408 301h55v20h-55z"/><path d="m49 301h55v20h-55z"/></g></svg>