<svg id="Layer_1" height="512" viewBox="0 0 512 512" width="512" xmlns="http://www.w3.org/2000/svg" data-name="Layer 1"><path d="m428.33 346.45h-290.76l5.03 23.79h310.05a24.325 24.325 0 0 0 -24.32-23.79z" fill="#6d6d93"/><path d="m106.333 155.948-30.593-21.061a15.848 15.848 0 0 0 -15.74 15.663v219.45h93z" fill="#d4e1f4"/><path d="m495 411a41 41 0 0 0 -41-41h-396a41 41 0 0 0 -41 41 41 41 0 0 0 41 41h396a41 41 0 0 0 41-41z" fill="#6d7486"/><path d="m81.18 59.53-13.86 13.87a6.09 6.09 0 0 0 0 8.6l86.5 86.53a6.09 6.09 0 0 0 8.6 0l13.86-13.86z" fill="#e97187"/><path d="m456.92 411.35v.01a20.18 20.18 0 0 1 -20.18 20.18h-18.55v-40.37h18.55a20.18 20.18 0 0 1 20.18 20.18z" fill="#527fd8"/><path d="m377.65 391.17h40.54v40.37h-40.54z" fill="#6994fe"/><path d="m337.1 391.17h40.55v40.37h-40.55z" fill="#527fd8"/><path d="m296.55 391.17h40.55v40.37h-40.55z" fill="#6994fe"/><path d="m256 391.17h40.55v40.37h-40.55z" fill="#527fd8"/><path d="m215.45 391.17h40.55v40.37h-40.55z" fill="#6994fe"/><path d="m174.9 391.17h40.55v40.37h-40.55z" fill="#527fd8"/><path d="m134.35 391.17h40.55v40.37h-40.55z" fill="#6994fe"/><path d="m93.81 391.17h40.54v40.37h-40.54z" fill="#527fd8"/><path d="m93.81 391.17v40.37h-18.55a20.18 20.18 0 0 1 -20.18-20.18v-.01a20.18 20.18 0 0 1 20.18-20.18z" fill="#6994fe"/><path d="m90 150.55a15.276 15.276 0 0 1 .928-5.207l-15.188-10.456a15.848 15.848 0 0 0 -15.74 15.663v219.45h30z" fill="#e3f0ff"/><path d="m47 411a41 41 0 0 1 41-41h-30a41 41 0 0 0 0 82h30a41 41 0 0 1 -41-41z" fill="#b0b5ca"/><path d="m94.56 109.25-14.72 17.91a20.485 20.485 0 0 0 26.83 30.29 19.612 19.612 0 0 0 2.01-1.45l17.9-14.72z" fill="#c66177"/><g fill="#bfccdb"><path d="m85.184 330.167a6 6 0 0 1 -5.993-5.792l-2.964-85.613a6 6 0 1 1 11.992-.415l2.965 85.613a6 6 0 0 1 -5.788 6.2c-.072.007-.142.007-.212.007z"/><path d="m81.51 224.076a6 6 0 0 1 -5.992-5.792l-.186-5.353a6 6 0 1 1 11.992-.416l.186 5.353a6 6 0 0 1 -5.788 6.205z"/></g></svg>