<svg id="Layer_1" height="512" viewBox="0 0 512 512" width="512" xmlns="http://www.w3.org/2000/svg" data-name="Layer 1"><path d="m489.23 407.2v40a47.923 47.923 0 0 1 -48.05 47.8h-370.36a47.923 47.923 0 0 1 -48.05-47.8v-40a40 40 0 0 0 40 40h386.46a40 40 0 0 0 40-40z" fill="#4689d3"/><path d="m449.23 17h-386.46a39.806 39.806 0 0 0 -39.77 40v350.2a39.636 39.636 0 0 0 39.77 39.8h386.46a39.636 39.636 0 0 0 39.77-39.8v-350.2a39.806 39.806 0 0 0 -39.77-40z" fill="#5fa8ed"/><path d="m256.23 53h-.46c-.26 0-.3.015-.545.025a91.031 91.031 0 0 0 -90.225 91.225v24.75h182v-24.75c0-50.38-40.39-91.25-90.77-91.25z" fill="#f3ce7d"/><path d="m442.95 243.77v153.41a14.374 14.374 0 0 1 -14.41 14.34h-345.08a14.374 14.374 0 0 1 -14.41-14.34v-153.41a14.374 14.374 0 0 1 14.41-14.34h99.69a14.406 14.406 0 0 1 13.68 9.81l8.58 25.62a53.417 53.417 0 0 0 101.18 0l8.58-25.62a14.406 14.406 0 0 1 13.68-9.81h99.69a14.374 14.374 0 0 1 14.41 14.34z" fill="#7ce5e9"/><path d="m99 397.18v-153.41a14.789 14.789 0 0 1 14.46-14.77h-30a14.789 14.789 0 0 0 -14.46 14.77v153.41c0 7.92 6.5 14.82 14.46 14.82h30c-7.96 0-14.46-6.9-14.46-14.82z" fill="#67cece"/><path d="m53 407.2v-350.2a39.806 39.806 0 0 1 39.77-40h-30a39.806 39.806 0 0 0 -39.77 40v350.2a39.636 39.636 0 0 0 39.77 39.8h30a39.636 39.636 0 0 1 -39.77-39.8z" fill="#92ceff"/><path d="m52.77 447.2v-1.26a40.019 40.019 0 0 1 -30-38.74v40a47.923 47.923 0 0 0 48.05 47.8h30a47.923 47.923 0 0 1 -48.05-47.8z" fill="#58a6ed"/><g id="_Path_4" data-name=" Path 4"><path d="m251.134 159.26a6 6 0 0 1 -5.434-3.449l-19.151-40.745a6 6 0 1 1 10.859-5.105l19.152 40.746a6 6 0 0 1 -5.426 8.553z" fill="#c66177"/></g><path d="m50.258 175.2a6 6 0 0 1 -6-6v-85.663a6 6 0 0 1 12 0v85.663a6 6 0 0 1 -6 6z" fill="#f4f8fc"/><path d="m50.258 69.046a6 6 0 0 1 -6-6v-5.357a6 6 0 0 1 12 0v5.357a6 6 0 0 1 -6 6z" fill="#f4f8fc"/><path d="m271.78 168.96v.32h-31.56v-.32a15.78 15.78 0 0 1 31.56 0z" fill="#4a5160"/><g fill="#bfa062"><path d="m255.77 53c-.26 0-.3.015-.545.025-2.094.017-4.168.111-6.225.267v11.708a6 6 0 0 0 12 0v-11.876q-2.369-.124-4.77-.124z"/><path d="m346.785 138h-11.785a6 6 0 0 0 0 12h12v-5.75c0-2.101-.076-4.184-.215-6.25z"/><path d="m177 138h-11.784c-.139 2.066-.216 4.149-.216 6.25v5.75h12a6 6 0 0 0 0-12z"/><path d="m315.925 75.428c-.011.011-.025.018-.035.029l-8.493 8.45a6 6 0 0 0 8.465 8.506l8.492-8.451c.016-.015.027-.034.042-.05a91.049 91.049 0 0 0 -8.471-8.484z"/><path d="m196.142 75.488a91.343 91.343 0 0 0 -8.486 8.485l8.482 8.44a6 6 0 0 0 8.465-8.506z"/></g></svg>