<svg id="Layer_1" height="512" viewBox="0 0 512 512" width="512" xmlns="http://www.w3.org/2000/svg" data-name="Layer 1"><path d="m468.6 102.32 26.4 310.55-197.11 38.99-45.71-96.8-43.53 96.8-191.65-38.99 26.4-310.55.45.04 30.38 2.77a1999.329 1999.329 0 0 0 363.54 0l30.36-2.77z" fill="#5fcda4"/><path d="m109.06 108-.01.11v25.07a51.047 51.047 0 0 1 -50.99 50.98h-21.07l-.54-.05 6.95-81.79.45.04 30.38 2.77q17.4 1.59 34.83 2.87z" fill="#4ca987"/><path d="m36.99 184.16h21.07a51.036 51.036 0 0 0 8.789-.774l6.551-77.066.107-1.256-29.657-2.7-.45-.04-6.95 81.79z" fill="#5fcda4"/><path d="m468.6 102.32 6.95 81.84h-21.02a51.038 51.038 0 0 1 -50.98-50.98v-25.07l-.01-.16q17.115-1.26 34.23-2.82l30.36-2.77z" fill="#4ca987"/><path d="m109.06 108-.01.11v25.07a51.047 51.047 0 0 1 -50.99 50.98h-21.07l-.54-.05-1.53 18.03.07.01h23.07a69.05 69.05 0 0 0 68.98-68.97v-23.94q-8.985-.57-17.98-1.24z" fill="#9be147"/><path d="m475.55 184.16h-21.02a51.038 51.038 0 0 1 -50.98-50.98v-25.07l-.01-.16q-9 .675-17.99 1.25v23.98a69.057 69.057 0 0 0 68.98 68.97h22.55z" fill="#9be147"/><g fill="#d8ff33"><path d="m477.08 202.15 17.92 210.72-19.99 3.95-17.89-214.33v-.34z"/><path d="m324.25 446.6.01.04-26.37 5.22-34.19-72.4.33-.15a56.151 56.151 0 0 1 38.15 27.95z"/><path d="m241.15 379.58-32.5 72.28-27.19-5.53 21.01-38.49a56.143 56.143 0 0 1 38.21-28.47z"/><path d="m54.91 202.15-17.92 214.72-.01.06-19.98-4.06 17.92-210.73.07.01z"/></g><path d="m228 113v28.87a6 6 0 0 0 12 0v-28.87z" fill="#419372"/><path d="m234.007 168.2a6 6 0 0 1 -6-6v-2.665a6 6 0 0 1 12 0v2.665a6 6 0 0 1 -6 6z" fill="#419372"/><path d="m257.4 263.363a5.965 5.965 0 0 1 -2.806-.7 49.915 49.915 0 0 1 -26.589-44.182v-37.29a6 6 0 1 1 12 0v37.289a37.942 37.942 0 0 0 20.213 33.582 6 6 0 0 1 -2.818 11.3z" fill="#419372"/><path d="m465.01 60.14 3.59 42.18-.47.04-30.36 2.77a1999.329 1999.329 0 0 1 -363.54 0l-30.38-2.77-.45-.04 3.59-42.18 18.62 1.79a2000.046 2000.046 0 0 0 380.78 0z" fill="#78a4ea"/><path d="m46.99 60.14-3.59 42.18.45.04 29.657 2.7 3.713-42.055q-5.806-.521-11.61-1.075z" fill="#aecdff"/></svg>