<svg id="Layer_1" height="512" viewBox="0 0 512 512" width="512" xmlns="http://www.w3.org/2000/svg" data-name="Layer 1"><path d="m326.39 211.6v33.53h-233.14v-33.53c0-.12 0-.24.01-1.36h233.12c.01 1.12.01 1.24.01 1.36z" fill="#6b7a99"/><path d="m327.77 245h-235.9c-12.35 0-22.87 10.09-22.87 22.37v13.63h281v-13.63a22.3 22.3 0 0 0 -22.23-22.37z" fill="#6d6d93"/><g fill="#5fa8ed"><path d="m191.57 403.63c3.65 8-2.4 16.98-11.43 16.98s-15.08-8.98-11.43-16.98l10.16-22.28a1.408 1.408 0 0 1 2.54 0z"/><path d="m250.93 403.63c3.64 8-2.4 16.98-11.43 16.98s-15.08-8.98-11.43-16.98l10.16-22.28a1.408 1.408 0 0 1 2.54 0z"/><path d="m310.29 403.63c3.64 8-2.41 16.98-11.44 16.98s-15.07-8.98-11.43-16.98l10.16-22.28a1.382 1.382 0 0 1 1.27-.8 1.4 1.4 0 0 1 1.28.8z"/><path d="m310.29 332.82c3.64 7.99-2.41 16.98-11.44 16.98s-15.07-8.99-11.43-16.98l10.16-22.28a1.382 1.382 0 0 1 1.27-.8 1.4 1.4 0 0 1 1.28.8z"/><path d="m250.93 332.82c3.64 7.99-2.4 16.98-11.43 16.98s-15.08-8.99-11.43-16.98l10.16-22.28a1.408 1.408 0 0 1 2.54 0z"/><path d="m191.57 332.82c3.65 7.99-2.4 16.98-11.43 16.98s-15.08-8.99-11.43-16.98l10.16-22.28a1.408 1.408 0 0 1 2.54 0z"/><path d="m132.22 332.82c3.64 7.99-2.41 16.98-11.44 16.98s-15.07-8.99-11.43-16.98l10.16-22.28a1.382 1.382 0 0 1 1.27-.8 1.4 1.4 0 0 1 1.28.8z"/><path d="m132.22 403.63c3.64 8-2.41 16.98-11.44 16.98s-15.07-8.98-11.43-16.98l10.16-22.28a1.382 1.382 0 0 1 1.27-.8 1.4 1.4 0 0 1 1.28.8z"/><path d="m132.22 474.45c3.64 7.99-2.41 16.98-11.44 16.98s-15.07-8.99-11.43-16.98l10.16-22.28a1.391 1.391 0 0 1 1.27-.81 1.406 1.406 0 0 1 1.28.81z"/><path d="m191.57 474.45c3.65 7.99-2.4 16.98-11.43 16.98s-15.08-8.99-11.43-16.98l10.16-22.28a1.4 1.4 0 0 1 2.54 0z"/><path d="m250.93 474.45c3.64 7.99-2.4 16.98-11.43 16.98s-15.08-8.99-11.43-16.98l10.16-22.28a1.4 1.4 0 0 1 2.54 0z"/><path d="m310.29 474.45c3.64 7.99-2.41 16.98-11.44 16.98s-15.07-8.99-11.43-16.98l10.16-22.28a1.391 1.391 0 0 1 1.27-.81 1.406 1.406 0 0 1 1.28.81z"/></g><path d="m442.5 140.34v354.66h-28.49v-354.66c0-52.39-42.87-95.01-95.57-95.01s-95.56 42.62-95.56 95.01v20.48h-28.49v-20.48c0-68.01 55.65-123.34 124.05-123.34s124.06 55.33 124.06 123.34z" fill="#acc5d1"/><path d="m275.32 161h-131.01c-28.08 0-50.86 22-51.05 50h233.12c-.19-28-22.97-50-51.06-50z" fill="#90a0cf"/><path d="m123.25 245 .01-34h-30c0-.255.019-.506.024-.76h-.024c-.01 1.12-.01 1.24-.01 1.36v33.4z" fill="#8b9dbc"/><path d="m121.87 245h-30c-12.35 0-22.87 10.09-22.87 22.37v13.63h30v-13.63c0-12.28 10.52-22.37 22.87-22.37z" fill="#8b8baf"/><path d="m123.26 211v-.76h.024c.595-27.635 23.2-49.24 51.026-49.24h-30c-27.824 0-50.431 21.6-51.026 49.24-.005.254-.023.5-.024.76z" fill="#b9c7ea"/><path d="m393.333 500a6 6 0 0 1 -6-6v-135.665a6 6 0 0 1 12 0v135.665a6 6 0 0 1 -6 6z" fill="#d4e1f4"/><path d="m393.333 343.845a6 6 0 0 1 -6-6v-5.357a6 6 0 0 1 12 0v5.357a6 6 0 0 1 -6 6z" fill="#d4e1f4"/></svg>