<svg id="Layer_1" height="512" viewBox="0 0 512 512" width="512" xmlns="http://www.w3.org/2000/svg" data-name="Layer 1"><path d="m104 73 4.61 68.1.275.017 27.972 4.374a746.524 746.524 0 0 0 230.421 0l27.862-4.346.34.021 4.52-68.166z" fill="#c66378"/><path d="m395.42 141.16-2.6 36.03-1.57.25-22.06 3.51a746.507 746.507 0 0 1 -234.18 0l-22.06-3.51-1.57-.25-2.6-36.04.19-.01 27.93 4.36a746.389 746.389 0 0 0 230.4-.01l27.85-4.35z" fill="#bad79d"/><path d="m442.3 363.09.01.04-40.96 8.2a760.482 760.482 0 0 1 -298.43 0l-41.02-8.21c2.96-44.51 13.93-81.09 33.83-120.23a157.4 157.4 0 0 0 17.22-65.43v-.02l22.06 3.51a746.507 746.507 0 0 0 234.18 0l22.06-3.51a157.411 157.411 0 0 0 17.22 65.45c19.9 39.13 30.87 75.71 33.83 120.2z" fill="#ffd8b7"/><path d="m61.9 363.12 41.02 8.21a760.482 760.482 0 0 0 298.43 0l40.96-8.2 1.84-.37 2.33 39.94-42.91 8.59a771.54 771.54 0 0 1 -302.87 0l-42.84-8.58 2.27-39.95z" fill="#59597a"/><path d="m446.48 402.7 5.35 91.94-399.21.09 5.24-92.02 42.84 8.58a771.54 771.54 0 0 0 302.87 0z" fill="#6d6d93"/><path d="m407.7 16.73a77.78 77.78 0 0 1 -7.83 61.49 75.519 75.519 0 0 1 -63.78 37.63q-1.11.03-2.22.03a85.726 85.726 0 0 1 -17.97-1.9 302.013 302.013 0 0 0 -63.19-7.07h-1.22a302.013 302.013 0 0 0 -63.19 7.07 85.726 85.726 0 0 1 -17.97 1.9q-1.11 0-2.22-.03a75.5 75.5 0 0 1 -63.77-37.63 77.769 77.769 0 0 1 -7.83-61.49z" fill="#e77187"/><ellipse cx="256" cy="332" fill="#efc597" rx="10" ry="13.33"/><path d="m90.017 368.747-28.117-5.627-1.77-.36-2.27 39.95 29.884 5.985z" fill="#767699"/><path d="m57.86 402.71-5.24 92.02 30.228-.007 4.896-86.028z" fill="#8f8fb5"/><path d="m142.914 182.159c-2.637-.39-5.247-.791-7.879-1.209l-22.035-3.51v.02a159.741 159.741 0 0 1 -17.245 65.43c-19.9 39.14-30.882 75.72-33.842 120.23l30.3 6.066c3.332-43.083 14.208-84.312 33.521-122.3a157.461 157.461 0 0 0 17.18-64.727z" fill="#eac3a7"/><g fill="#f4f8fc"><path d="m315.906 82.279a5.986 5.986 0 0 1 -1.262-.135 297.014 297.014 0 0 0 -61.936-6.934h-1.214a279.084 279.084 0 0 0 -38.525 2.772 6 6 0 1 1 -1.664-11.882 291.109 291.109 0 0 1 40.189-2.888h1.214a308.972 308.972 0 0 1 64.449 7.2 6 6 0 0 1 -1.251 11.868z"/><path d="m188.3 82.279a6 6 0 0 1 -1.251-11.868c2.405-.516 4.828-1.01 7.2-1.468a6 6 0 1 1 2.273 11.783c-2.293.442-4.636.92-6.962 1.418a6.016 6.016 0 0 1 -1.26.135z"/></g></svg>