<svg id="Layer_1" height="512" viewBox="0 0 512 512" width="512" xmlns="http://www.w3.org/2000/svg" data-name="Layer 1"><path d="m385.1 125h-202.8c-16.57 0-30.3 13.22-30.3 29.78v202.44c0 16.56 13.73 29.78 30.3 29.78h202.8a29.732 29.732 0 0 0 29.9-29.78v-202.44a29.732 29.732 0 0 0 -29.9-29.78z" fill="#424a64"/><path d="m371.56 156h-175.72a12.1 12.1 0 0 0 -11.84 12.27v175.46a12.1 12.1 0 0 0 11.84 12.27h175.72a12.626 12.626 0 0 0 12.44-12.27v-175.46a12.626 12.626 0 0 0 -12.44-12.27z" fill="#5fcda4"/><path d="m368.17 387.22-15.75 92.71a18.774 18.774 0 0 1 -18.41 15.07h-100.62a18.774 18.774 0 0 1 -18.41-15.07l-15.75-92.71z" fill="#7d8696"/><path d="m352.42 32.07 15.75 92.71h-168.94l15.75-92.71a18.774 18.774 0 0 1 18.41-15.07h100.62a18.774 18.774 0 0 1 18.41 15.07z" fill="#7d8696"/><path d="m214 343.73v-175.46a12.1 12.1 0 0 1 11.84-12.27h-30a12.1 12.1 0 0 0 -11.84 12.27v175.46a12.1 12.1 0 0 0 11.84 12.27h30a12.1 12.1 0 0 1 -11.84-12.27z" fill="#84efc4"/><path d="m244.98 479.93-15.75-92.71h-30l15.75 92.71a18.774 18.774 0 0 0 18.41 15.07h30a18.774 18.774 0 0 1 -18.41-15.07z" fill="#626a77"/><path d="m244.98 32.07a18.774 18.774 0 0 1 18.41-15.07h-30a18.774 18.774 0 0 0 -18.41 15.07l-15.75 92.71h30z" fill="#626a77"/><path d="m209.01 240.32a62.3 62.3 0 0 1 .94-15.83c4.13-21.81 19.33-35.73 39.03-35.73 11.07 0 22.89 4.51 34.72 13.35 11.63-8.46 23.64-12.98 34.52-12.98 19.71 0 34.91 13.92 39.22 35.36 6.2 31.98-13.51 74.68-71.87 98.38a4.936 4.936 0 0 1 -3.75 0c-49.08-19.53-70.9-53.09-72.81-82.55z" fill="#e67187"/><path d="m230.562 80.986a6.071 6.071 0 0 1 -1.024-.088 6 6 0 0 1 -4.9-6.931l4.941-28.712a6 6 0 1 1 11.831 2.035l-4.941 28.71a6 6 0 0 1 -5.907 4.986z" fill="#f4f8fc"/><path d="m227.442 103.9a6.007 6.007 0 0 1 -5.921-7.006l1.117-6.575a6 6 0 0 1 11.83 2.01l-1.117 6.571a6 6 0 0 1 -5.909 5z" fill="#f4f8fc"/><path d="m189.565 279.078c-.14 0-.281 0-.422-.015a6 6 0 0 1 -5.117-3.677l-26.816-64.354-16.284 27.986a6 6 0 0 1 -5.186 2.982h-38.74a6 6 0 0 1 0-12h35.29l20.625-35.447a6 6 0 0 1 10.724.71l26.867 64.475 27.306-45.9a5.91 5.91 0 0 1 5.16-2.838h.116a5.824 5.824 0 0 1 5.158 3.04l19.554 35.96h20.2a6 6 0 0 1 0 12h-23.772a6 6 0 0 1 -5.275-3.14l-16.218-29.907-28.011 47.188a6 6 0 0 1 -5.159 2.937z" fill="#eadf53"/><path d="m281.343 238.013a17.751 17.751 0 1 0 17.722 17.751 17.758 17.758 0 0 0 -17.722-17.751z" fill="#49bdff"/></svg>