<svg id="Layer_1" height="512" viewBox="0 0 512 512" width="512" xmlns="http://www.w3.org/2000/svg" data-name="Layer 1"><path d="m490.41 286.82-.22.12a40.375 40.375 0 0 1 -28.64 20.71l-48.61 8.5a417.236 417.236 0 0 1 -43.16 5.05l-352.78.8v5.71c0 27.82 23.55 32.29 51.32 32.29h272.42a419.307 419.307 0 0 0 72.2-6.5l48.61-8.617a40.506 40.506 0 0 0 33.45-39.924 38.131 38.131 0 0 0 -4.59-18.139z" fill="#d4e2e8"/><path d="m145.42 322.42h-128.42v-83.41l44.13-.36a83.691 83.691 0 0 1 84.29 83.77z" fill="#5fa8ed"/><path d="m490.41 286.82-.22.12a40.375 40.375 0 0 1 -28.64 20.71l-48.61 8.5a417.726 417.726 0 0 1 -43.16 5.26v-.02a117.464 117.464 0 0 0 -72.09-108.41l.01-.12q5.88.675 11.83.97a184.973 184.973 0 0 1 62.56 14.23l99.76 41.96a37.788 37.788 0 0 1 16.84 13.93c.62.93 1.19 1.89 1.72 2.87z" fill="#5fa8ed"/><path d="m297.8 212.98-.046-.12a184.742 184.742 0 0 1 -27.117-5.15l-20.451-6.8a183.852 183.852 0 0 1 -20.484-9.65 185.017 185.017 0 0 1 -28.061-18.92l-19.821-16.19a16.3 16.3 0 0 0 -15.361-2.88l-1.84.6a16.355 16.355 0 0 0 -8.66 6.68 65.571 65.571 0 0 1 -109.1 1.68 16.314 16.314 0 0 0 -29.859 9.13v67.65l44.13-.57c46.45-.37 84.29 37.56 84.29 83.56h195.32c9.69 0 19.26.09 29.26-.59v-.02a117.562 117.562 0 0 0 -72.2-108.41z" fill="#5274ce"/><path d="m47 327.71v-5.29h-30v5.29c0 27.82 23.55 32.29 51.32 32.29h30c-27.77 0-51.32-4.47-51.32-32.29z" fill="#e6f5fc"/><path d="m47 322v-82.99-.245l-30 .245v82.99.42h30z" fill="#a6d7ff"/><path d="m47 171.36a16.315 16.315 0 0 1 1.514-6.856c-.565-.747-1.12-1.5-1.654-2.274a16.314 16.314 0 0 0 -29.86 9.13v67.65l30-.388z" fill="#779bed"/><g fill="#b0b5ca"><path d="m219.584 210.934a6 6 0 0 1 -3-11.2 15.317 15.317 0 0 0 5.643-20.863 6 6 0 1 1 10.414-5.961 27.334 27.334 0 0 1 -10.079 37.229 5.974 5.974 0 0 1 -2.978.795z"/><path d="m240.168 220.212a6 6 0 0 1 -3-11.2 15.319 15.319 0 0 0 5.642-20.864 6 6 0 1 1 10.414-5.961 27.334 27.334 0 0 1 -10.078 37.229 5.963 5.963 0 0 1 -2.978.796z"/><path d="m260.751 226.4a6 6 0 0 1 -3-11.2 15.317 15.317 0 0 0 5.643-20.863 6 6 0 1 1 10.414-5.961 27.336 27.336 0 0 1 -10.074 37.224 5.972 5.972 0 0 1 -2.983.8z"/></g><path d="m330.739 306.417h-4.239a6 6 0 0 1 0-12h4.236a6 6 0 0 1 0 12z" fill="#f4f8fc"/><path d="m305 306.417h-119a6 6 0 1 1 0-12h119a6 6 0 0 1 0 12z" fill="#f4f8fc"/></svg>