<svg id="Layer_1" height="512" viewBox="0 0 512 512" width="512" xmlns="http://www.w3.org/2000/svg" data-name="Layer 1"><path d="m269.06 155.74v.17l-26.12.13v-112.13h26.12z" fill="#b0b5ca"/><path d="m334.69 247.7c42.67 55.96 42.28 147.76-1.18 204.22-21.49 28.17-49.5 42.52-77.49 43.06.32-.01.64-.03.96-.05 13.6-1.15 27.15-15.49 37.59-43.01 21.63-56.46 21.82-148.26.59-204.22l-23.45-60.84v-.2l15.65-.08z" fill="#bf9e64"/><path d="m295.16 247.7c21.23 55.96 21.04 147.76-.59 204.22-10.44 27.52-23.99 41.86-37.59 43.01l-.02-.31v-307.89l14.75-.07v.2z" fill="#d8b571"/><path d="m256.96 494.62.02.31c-.32.02-.64.04-.96.05l-.3.01c-.27 0-.53.01-.79.01-13.87-.18-27.63-14.05-38.09-41.61-10.52-27.73-15.78-64.25-15.78-100.91 0-37.34 5.46-74.82 16.37-103.31l23.31-62.31v-.05l16.22-.08z" fill="#f1ce7c"/><path d="m254.93 495h-.55c-28.04 0-55.92-13.87-77.07-41.61-21.14-27.72-31.71-64.25-31.71-100.91 0-37.34 10.96-74.82 32.89-103.31l46.77-62.21v-.07l15.48-.08v.05l-23.31 62.31c-10.91 28.49-16.37 65.97-16.37 103.31 0 36.66 5.26 73.18 15.78 100.91 10.46 27.56 24.22 41.43 38.09 41.61z" fill="#ffebcc"/><path d="m299.99 153.76-85.955.42a4.048 4.048 0 0 0 -4.035 4v24.76a4.044 4.044 0 0 0 4.074 4l85.945-.42a4 4 0 0 0 3.981-4v-24.76a4 4 0 0 0 -4.01-4z" fill="#6d7486"/><path d="m158.32 17a28.956 28.956 0 0 0 8.45 20.485 28.771 28.771 0 0 0 20.4 8.515h137.66a28.964 28.964 0 0 0 28.85-29z" fill="#6d7486"/><path d="m205.31 453.39c-21.14-27.72-31.71-64.25-31.71-100.91 0-37.34 10.96-74.82 32.89-103.31l21.775-28.964 12.475-33.346v-.05l-15.48.08v.07l-46.77 62.21c-21.93 28.49-32.89 65.97-32.89 103.31 0 36.66 10.57 73.19 31.71 100.91 21.15 27.74 49.03 41.61 77.07 41.61h.55c-9.254-.12-18.458-6.343-26.666-18.652a116.881 116.881 0 0 1 -22.954-22.958z" fill="#fff9f0"/><path d="m186.32 17h-28a28.956 28.956 0 0 0 8.45 20.485 28.771 28.771 0 0 0 20.4 8.515h28a28.771 28.771 0 0 1 -20.4-8.515 28.956 28.956 0 0 1 -8.45-20.485z" fill="#818899"/><path d="m238 182.94v-24.76a4.048 4.048 0 0 1 4.035-4h-28a4.048 4.048 0 0 0 -4.035 4v24.76a4.044 4.044 0 0 0 4.074 4l27.01-.132a4.02 4.02 0 0 1 -3.084-3.868z" fill="#818899"/><g id="_Path_" fill="#f1ce7c" data-name=" Path "><path d="m187.713 431.6a6 6 0 0 1 -5.234-3.058c-17.307-30.742-23.089-71.766-15.468-109.742a6 6 0 1 1 11.765 2.362c-7.073 35.243-1.779 73.185 14.16 101.5a6 6 0 0 1 -5.223 8.945z"/><path d="m178.278 306.1a6 6 0 0 1 -5.67-7.963c1.169-3.381 2.462-6.726 3.843-9.944a6 6 0 1 1 11.028 4.731c-1.267 2.953-2.455 6.027-3.531 9.136a6 6 0 0 1 -5.67 4.04z"/></g></svg>