<svg id="Layer_1" height="512" viewBox="0 0 512 512" width="512" xmlns="http://www.w3.org/2000/svg" data-name="Layer 1"><path d="m412.75 77.15a17.584 17.584 0 0 1 3.68 24.63l-22.94 30.84-.19.21a207.44 207.44 0 0 0 -27.72-20.75l22.58-31.1a17.541 17.541 0 0 1 24.59-3.83z" fill="#b3d1e7"/><path d="m147.7 111.27.01.02a206.176 206.176 0 0 0 -27.94 20.6l-22.93-30.18a17.556 17.556 0 1 1 28.05-21.12z" fill="#b3d1e7"/><path d="m276.25 17h-40.5a19.709 19.709 0 0 0 -19.75 19.41v12.59h80v-12.59a19.709 19.709 0 0 0 -19.75-19.41z" fill="#8aafc4"/><path d="m119.77 131.89a206.521 206.521 0 0 1 121.25-50.65q7.425-.54 14.98-.54 5.535 0 11 .29a207.039 207.039 0 0 1 195.97 206.86c0 114.41-92.66 207.15-206.97 207.15s-206.97-92.74-206.97-207.15a206.727 206.727 0 0 1 70.74-155.96z" fill="#5fa8ed"/><path d="m269 49v31.99q-5.46-.285-11-.29-7.56 0-14.98.54l-.02-.24v-32.04h26z" fill="#b3d1e7"/><path d="m256 109.12c98.63 0 178.58 80.02 178.58 178.73s-79.95 178.73-178.58 178.73-178.58-80.02-178.58-178.73 79.95-178.73 178.58-178.73z" fill="#f1ce7c"/><path d="m256 179.76a108.09 108.09 0 1 1 -108 108.09 108.041 108.041 0 0 1 108-108.09z" fill="#eb7288"/><path d="m256 206.34-14.06 80.02 27.25-.51z" fill="#4ca987"/><path d="m241.94 286.36a15.727 15.727 0 1 1 -1.67 7.05 15.714 15.714 0 0 1 1.67-7.05z" fill="#5fcda4"/><path d="m107.42 287.85c0-93.653 71.972-170.471 163.58-178.1-4.946-.412-9.947-.633-15-.633-98.63 0-178.58 80.02-178.58 178.73s79.95 178.733 178.58 178.733c5.053 0 10.054-.221 15-.633-91.608-7.626-163.58-84.447-163.58-178.097z" fill="#d3af66"/><path d="m178 287.85a108.071 108.071 0 0 1 93-107.05 108.09 108.09 0 1 0 0 214.1 108.071 108.071 0 0 1 -93-107.05z" fill="#d3667d"/><g id="_Path_4" data-name=" Path 4"><path d="m255.229 163.751a6 6 0 0 1 -6-6v-27.951a6 6 0 1 1 12 0v27.951a6 6 0 0 1 -6 6z" fill="#a88851"/></g><g id="_Path_5" data-name=" Path 5"><path d="m256.771 451.9a6 6 0 0 1 -6-6v-27.951a6 6 0 1 1 12 0v27.951a6 6 0 0 1 -6 6z" fill="#a88851"/></g><g id="_Path_4-2" data-name=" Path 4"><path d="m414.049 293.079h-27.949a6 6 0 0 1 0-12h27.95a6 6 0 0 1 0 12z" fill="#a88851"/></g><g id="_Path_5-2" data-name=" Path 5"><path d="m125.9 294.62h-27.949a6 6 0 0 1 0-12h27.949a6 6 0 0 1 0 12z" fill="#a88851"/></g><g id="_Path_4-3" data-name=" Path 4"><path d="m347.448 201.311a6 6 0 0 1 -4.242-10.243l19.765-19.768a6 6 0 0 1 8.484 8.485l-19.765 19.769a5.98 5.98 0 0 1 -4.242 1.757z" fill="#a88851"/></g><g id="_Path_5-3" data-name=" Path 5"><path d="m144.787 406.152a6 6 0 0 1 -4.242-10.242l19.764-19.764a6 6 0 0 1 8.484 8.485l-19.764 19.769a5.982 5.982 0 0 1 -4.242 1.752z" fill="#a88851"/></g><g id="_Path_4-4" data-name=" Path 4"><path d="m368.3 405.062a5.98 5.98 0 0 1 -4.242-1.757l-19.758-19.764a6 6 0 1 1 8.484-8.486l19.765 19.764a6 6 0 0 1 -4.242 10.243z" fill="#a88851"/></g><g id="_Path_5-4" data-name=" Path 5"><path d="m163.461 202.4a5.982 5.982 0 0 1 -4.242-1.757l-19.764-19.764a6 6 0 0 1 8.484-8.485l19.761 19.764a6 6 0 0 1 -4.242 10.242z" fill="#a88851"/></g><g id="_Path_" fill="#f4f8fc" data-name=" Path "><path d="m213.265 366.229a5.968 5.968 0 0 1 -3.058-.842 90.084 90.084 0 0 1 -32.194-122.472 6 6 0 1 1 10.392 6 78.087 78.087 0 0 0 27.929 106.156 6 6 0 0 1 -3.069 11.16z"/><path d="m194.811 236.293a6 6 0 0 1 -4.373-10.107c1.88-2 3.877-3.944 5.936-5.77a6 6 0 1 1 7.965 8.975c-1.788 1.587-3.522 3.272-5.154 5.009a5.981 5.981 0 0 1 -4.374 1.893z"/></g></svg>