<svg id="Layer_1" height="512" viewBox="0 0 512 512" width="512" xmlns="http://www.w3.org/2000/svg" data-name="Layer 1"><path d="m482.53 48.21a12.539 12.539 0 0 0 -12.53 12.49v47.35a12.5 12.5 0 0 0 25 0v-47.35a12.477 12.477 0 0 0 -12.47-12.49z" fill="#6d7486"/><path d="m356.46 47h-35.46l-149 199v219h206v-396.39a21.692 21.692 0 0 0 -21.54-21.61z" fill="#75967a"/><path d="m38.315 51.87a12.484 12.484 0 0 0 -21.315 8.83v47.35a12.5 12.5 0 0 0 25 0v-47.35a12.469 12.469 0 0 0 -3.685-8.83z" fill="#6d7486"/><path d="m42 69h428v31h-428z" fill="#b0b5ca"/><path d="m156.61 47a21.752 21.752 0 0 0 -21.61 21.61v197.39h206v-219z" fill="#9ac5a1"/><path d="m377.84 406.33v27.86c-16.94-2.35-18.34-18.72-37.88-18.72-21.05 0-21.05 19-42.1 19s-21.05-19-42.09-19-21.05 19-42.1 19-21.04-19-42.09-19v-27.86c21.05 0 21.05 19 42.09 19s21.05-19 42.1-19 21.04 19 42.09 19 21.05-19 42.1-19c19.54 0 20.94 16.37 37.88 18.72z" fill="#4689d3"/><path d="m341.49 207.04v27.86c-16.95-2.35-18.34-18.73-37.89-18.73-21.05 0-21.05 19-42.1 19s-21.05-19-42.09-19-21.05 19-42.09 19-21.05-19-42.1-19v-27.86c21.05 0 21.05 19 42.1 19s21.04-19 42.09-19 21.04 19 42.09 19 21.05-19 42.1-19c19.55 0 20.94 16.38 37.89 18.73z" fill="#5fa8ed"/><path d="m135.22 216.17v-27.86c15.88 0 19.784 10.81 29.78 16.121v-135.821a21.752 21.752 0 0 1 21.61-21.61h-30a21.752 21.752 0 0 0 -21.61 21.61v197.39h30v-33.709c-10-5.311-13.9-16.121-29.78-16.121z" fill="#beeac3"/><path d="m135.22 216.17c15.88 0 19.784 10.81 29.78 16.121v-27.86c-10-5.311-13.9-16.121-29.78-16.121z" fill="#85c8ff"/><g fill="#75967a"><path d="m160.591 85.683a6 6 0 0 1 -6-6v-3.892a6 6 0 0 1 12 0v3.892a6 6 0 0 1 -6 6z"/><path d="m160.591 171.369a6 6 0 0 1 -6-6v-63.943a6 6 0 1 1 12 0v63.943a6 6 0 0 1 -6 6z"/></g></svg>