<svg id="Layer_1" height="512" viewBox="0 0 512 512" width="512" xmlns="http://www.w3.org/2000/svg" data-name="Layer 1"><path d="m460.9 379.26h-356.35v-22.56h333.78a22.562 22.562 0 0 1 22.57 22.56z" fill="#7d8595"/><path d="m462.535 379h-389.325c-18.05 0-32.21 14.89-32.21 32.94v.01c0 18.05 14.16 33.05 32.21 33.05h389.11c18.05 0 32.68-15 32.68-33.05v-.01c0-18.05-14.415-32.94-32.465-32.94z" fill="#696993"/><path d="m75 132.24v246.76h30v-1-228.08z" fill="#6994fe"/><path d="m20.98 67.37a28.741 28.741 0 0 0 10.18 39.36l118.15 69.43a28.768 28.768 0 0 0 39.35-10.26z" fill="#ea7288"/><path d="m123.4 206.99-65.6.41.03 44.56 65.6-.42z" fill="#ea7288"/><g fill="#56568c"><path d="m446.96 393.14a18.805 18.805 0 1 1 -18.81 18.8 18.806 18.806 0 0 1 18.81-18.8z"/><path d="m387.23 393.14a18.805 18.805 0 1 1 -18.81 18.8 18.806 18.806 0 0 1 18.81-18.8z"/><path d="m327.5 393.14a18.805 18.805 0 1 1 -18.81 18.8 18.812 18.812 0 0 1 18.81-18.8z"/><path d="m267.76 393.14a18.805 18.805 0 1 1 -18.81 18.8 18.806 18.806 0 0 1 18.81-18.8z"/><path d="m208.03 393.14a18.805 18.805 0 1 1 -18.81 18.8 18.806 18.806 0 0 1 18.81-18.8z"/><path d="m148.3 393.14a18.805 18.805 0 1 1 -18.81 18.8 18.806 18.806 0 0 1 18.81-18.8z"/></g><path d="m71 411.95v-.01c0-18.05 14.16-32.94 32.21-32.94h-30c-18.05 0-32.21 14.89-32.21 32.94v.01c0 18.05 14.16 33.05 32.21 33.05h30c-18.05 0-32.21-15-32.21-33.05z" fill="#8b8bb7"/><path d="m88.57 393.14a18.805 18.805 0 1 1 -18.81 18.8 18.806 18.806 0 0 1 18.81-18.8z" fill="#56568c"/><path d="m53.592 370.534a6 6 0 0 1 -6-6v-68.664a6 6 0 0 1 12 0v68.664a6 6 0 0 1 -6 6z" fill="#d4e1f4"/><path d="m53.592 281.379a6 6 0 0 1 -6-6v-5.357a6 6 0 0 1 12 0v5.357a6 6 0 0 1 -6 6z" fill="#d4e1f4"/></svg>