<svg id="Layer_1" height="512" viewBox="0 0 512 512" width="512" xmlns="http://www.w3.org/2000/svg" data-name="Layer 1"><path d="m399 17h45v478h-45z" fill="#91b1c4"/><path d="m68 17h45v478h-45z" fill="#91b1c4"/><g fill="#a4bdc1"><path d="m113.26 403.25h285.48v33.98h-285.48z"/><path d="m113.26 293.76h285.48v33.98h-285.48z"/><path d="m113.26 184.26h285.48v33.98h-285.48z"/><path d="m113.26 74.77h285.48v33.98h-285.48z"/></g><path d="m68 17h30v478h-30z" fill="#b1d0e0"/><path d="m94.258 207.2a6 6 0 0 1 -6-6v-135.663a6 6 0 0 1 12 0v135.663a6 6 0 0 1 -6 6z" fill="#f4f8fc"/><path d="m94.258 51.046a6 6 0 0 1 -6-6v-5.357a6 6 0 0 1 12 0v5.357a6 6 0 0 1 -6 6z" fill="#f4f8fc"/></svg>