<svg id="Layer_1" height="512" viewBox="0 0 512 512" width="512" xmlns="http://www.w3.org/2000/svg" data-name="Layer 1"><path d="m289.39 107.06-.08-.06h-205.55l17.42 174.3c20.86.72 22 8.06 45.02 8.06 24.23 0 24.23-8.12 48.45-8.12s24.22 8.12 48.45 8.12 24.22-8.12 48.45-8.12c23.14 0 24.17 7.4 45.32 8.07l7.45-66.62z" fill="#ddeff2"/><path d="m336.87 289.31-6.74 67.41c-14.96-1.82-18.19-7.58-38.58-7.58-24.23 0-24.23 8.12-48.45 8.12s-24.23-8.12-48.45-8.12-24.22 8.12-48.45 8.12c-20.11 0-23.52-5.6-37.97-7.5l-.21.02-6.84-68.48c20.86.72 22 8.06 45.02 8.06 24.23 0 24.23-8.12 48.45-8.12s24.22 8.12 48.45 8.12 24.22-8.12 48.45-8.12c23.14 0 24.17 7.4 45.32 8.07z" fill="#88ced8"/><path d="m330.13 356.72-6.66 66.69c-9.86-2.38-14.94-6.37-31.92-6.37-24.23 0-24.23 8.12-48.45 8.12s-24.23-8.12-48.45-8.12-24.22 8.12-48.45 8.12c-16.57 0-21.8-3.8-31.21-6.2l-.06.01-6.91-69.19.21-.02c14.45 1.9 17.86 7.5 37.97 7.5 24.23 0 24.23-8.12 48.45-8.12s24.22 8.12 48.45 8.12 24.22-8.12 48.45-8.12c20.39 0 23.62 5.76 38.58 7.58z" fill="#a0eaea"/><path d="m323.47 423.41-4.53 45.39a29.085 29.085 0 0 1 -28.93 26.2h-141.18a29.076 29.076 0 0 1 -28.92-26.2l-4.98-49.83.06-.01c9.41 2.4 14.64 6.2 31.21 6.2 24.23 0 24.23-8.12 48.45-8.12s24.22 8.12 48.45 8.12 24.22-8.12 48.45-8.12c16.98 0 22.06 3.99 31.92 6.37z" fill="#88ced8"/><path d="m418.78 113.73-68.98-96.73-68.99 96.47a68.846 68.846 0 0 0 -9.46 34.75c0 37.75 30.96 73.07 71.97 76.47q3.195.27 6.48.27c57.13 0 97.68-61.94 68.98-111.23z" fill="#a0eaea"/><path d="m83.76 107 17.42 174.3a63.526 63.526 0 0 1 20.381 3.859l-17.801-178.159z" fill="#e9fbff"/><path d="m108.23 349.76-.21.02 6.91 69.19.06-.01c7.011 1.788 11.7 4.353 20.494 5.544l-6.921-69.272c-6.848-1.8-11.556-4.318-20.333-5.472z" fill="#c5fffd"/><path d="m101.18 281.3 6.84 68.48.21-.02c8.777 1.154 13.485 3.672 20.333 5.472l-7-70.073a63.526 63.526 0 0 0 -20.383-3.859z" fill="#a0eaea"/><path d="m139.91 468.8-4.426-44.3c-8.789-1.191-13.483-3.756-20.494-5.544l-.06.01 4.98 49.83a29.076 29.076 0 0 0 28.92 26.204h20a29.076 29.076 0 0 1 -28.92-26.2z" fill="#a0eaea"/><path d="m301.35 148.22a68.846 68.846 0 0 1 9.46-34.75l53.969-75.465-14.979-21.005-68.99 96.47a68.846 68.846 0 0 0 -9.46 34.75c0 37.75 30.96 73.07 71.97 76.47q3.195.27 6.48.27a77.686 77.686 0 0 0 15.029-1.467c-36.714-7.2-63.479-40.178-63.479-75.273z" fill="#88ced8"/><g fill="#f4f8fc"><path d="m349.8 206.957a61.259 61.259 0 0 1 -52.742-30.9 56.194 56.194 0 0 1 -7.472-22.965 6 6 0 1 1 11.949-1.108 44.283 44.283 0 0 0 5.919 18.08 49.229 49.229 0 0 0 42.346 24.89 6 6 0 0 1 0 12z"/><path d="m298.5 137.875a6 6 0 0 1 -5.582-8.2 53.453 53.453 0 0 1 3.477-7.189 6 6 0 0 1 10.385 6.014 41.307 41.307 0 0 0 -2.695 5.568 6 6 0 0 1 -5.585 3.807z"/></g></svg>