<svg id="Layer_1" height="512" viewBox="0 0 512 512" width="512" xmlns="http://www.w3.org/2000/svg" data-name="Layer 1"><path d="m50 62v19.87a41.817 41.817 0 0 0 41.87 42.13h328.26a41.817 41.817 0 0 0 41.87-42.13v-19.87z" fill="#a5bfce"/><path d="m223.28 124.16h63.33v61.47h-63.33z" fill="#b3d1e7"/><path d="m395.87 237.765a90.522 90.522 0 0 0 -81.98-51.765h-115.78a90.522 90.522 0 0 0 -81.98 51.765l-73.13 154.745v.49h426v-.49z" fill="#6994fe"/><path d="m472.58 393h-433.16c-12.38 0-22.42 9.58-22.42 21.99v35.01h478v-35.01c0-12.41-10.04-21.99-22.42-21.99z" fill="#775b84"/><path d="m402.72 342.5a12.69 12.69 0 1 1 -12.67 12.69 12.675 12.675 0 0 1 12.67-12.69z" fill="#5fcda4"/><path d="m326.31 298.76a70.4 70.4 0 0 1 -3.56 22.18l-.32-.1h-132.86l-.32.1a70.339 70.339 0 1 1 137.06-22.18z" fill="#ecc878"/><path d="m109.28 342.5a12.69 12.69 0 1 1 -12.66 12.69 12.677 12.677 0 0 1 12.66-12.69z" fill="#5fcda4"/><path d="m91.87 124h30a41.817 41.817 0 0 1 -41.87-42.13v-19.87h-30v19.87a41.817 41.817 0 0 0 41.87 42.13z" fill="#c5deea"/><path d="m69.42 393h-30c-12.38 0-22.42 9.58-22.42 21.99v35.01h30v-35.01c0-12.41 10.04-21.99 22.42-21.99z" fill="#9b7eaa"/><path d="m146.13 237.765a90.522 90.522 0 0 1 81.98-51.765h-30a90.522 90.522 0 0 0 -81.98 51.765l-73.13 154.745v.49h30v-.49z" fill="#9bf"/><g id="_Path_4" data-name=" Path 4"><path d="m256 325.907a6 6 0 0 1 -6-6v-45.674a6 6 0 1 1 12 0v45.674a6 6 0 0 1 -6 6z" fill="#fb6771"/></g><path d="m234.508 94h-129.908a6 6 0 1 1 0-12h129.9a6 6 0 1 1 0 12z" fill="#f4f8fc"/><path d="m86.269 94h-4.794a6 6 0 0 1 0-12h4.794a6 6 0 0 1 0 12z" fill="#f4f8fc"/><path d="m322.43 320.84.32.1a70.3 70.3 0 0 1 -133.5 0l.32-.1z" fill="#53d8d8"/></svg>