<svg id="Layer_1" height="512" viewBox="0 0 512 512" width="512" xmlns="http://www.w3.org/2000/svg" data-name="Layer 1"><path d="m356.345 274.41q-5.31-1.4-10.522-3.02l-38.194-16.14-8.664-4.69a11.415 11.415 0 0 1 -5.965-9.87v-23.69h-74v25.36a11.264 11.264 0 0 1 -6.16 10.07l-12.265 6.18-34.547 13.15c-2.87.8-5.744 1.54-8.644 2.22a72.067 72.067 0 0 0 -55.384 70.19v150.83h308v-150.83a72.073 72.073 0 0 0 -53.655-69.76z" fill="#f4cba2"/><path d="m150.84 445.94 2.26 49.08h205.8l2.26-49.08z" fill="#4689d3"/><path d="m329.18 76.54a75.333 75.333 0 0 1 1.36 20.38l-1.84 26.7c-26.5-2.83-33.34-30.6-33.34-30.6-35.03-2.16-53.41-9.11-64.95-22.65-8.16-9.57-12.9-22.43-17.68-39.21a1.772 1.772 0 0 0 -.15-.31s40.06-26.01 75.41-6.78c10.08 5.49 19.54 12.27 26.65 21.29a74.986 74.986 0 0 1 14.54 31.18z" fill="#6d7486"/><g fill="#4a5160"><path d="m330.685 217.83-1.685-26.82v-34.96a9.525 9.525 0 0 1 -1.19-.05h-1.22c-.79 25-18 48.885-37.52 63.1l2.04 31.446 29.208 10.668a74.637 74.637 0 0 0 10.367-43.384z"/><path d="m220.827 219.45-35.827-63.45h-.81a9.36 9.36 0 0 1 -1.19.05v35.06l-1.67 26.72a74.7 74.7 0 0 0 10.945 44.33l29.59-9.73z"/><path d="m212.73 31.16c4.78 16.78 9.52 29.64 17.68 39.21-15.03 5.98-36.65 20.13-47.06 53.28l-1.84-26.73a74.855 74.855 0 0 1 31.07-66.07 1.772 1.772 0 0 1 .15.31z"/></g><path d="m328.69 156.05c-.29.01-.59.02-.88.02h-1.22c-.79 24.49-14 48.85-33.52 63.07-10.77 7.86-23.46 12.62-37.05 12.62-13.5 0-26.12-4.7-36.84-12.47-19.63-14.2-32.92-38.65-33.72-63.22h-1.27c-.28 0-.57-.01-.85-.02a17.992 17.992 0 0 1 -17.12-18 18.321 18.321 0 0 1 .51-4.3c1.87-7.64 9.29-11.3 16.06-10.02h.57l-.01-.08c10.41-33.15 32.03-47.3 47.06-53.28 11.54 13.54 29.92 20.49 64.95 22.65 0 0 6.84 27.77 33.34 30.6v.01h.51a13.723 13.723 0 0 1 16.06 10.12 18.472 18.472 0 0 1 .51 4.3 17.994 17.994 0 0 1 -17.09 18z" fill="#ffd8b7"/><path d="m374.68 389.67c-7.54-25.59-14.53-51.33-20.11-77.41l-8.74-40.87-26.9-11.39-2.18 56.01a22.832 22.832 0 0 1 -22.73 21.99h-76.04a22.832 22.832 0 0 1 -22.73-21.99l-2.08-54.855-27.14 10.614.03.115-8.63 40.378c-5.58 26.08-12.57 51.819-20.11 77.409a60.019 60.019 0 0 0 13.52 57.269 57.158 57.158 0 0 0 41.1 18.59c.56.01 1.13.02 1.69.02a65.2 65.2 0 0 0 13.71-1.3 229.1 229.1 0 0 1 48.2-5.25h.92a229.1 229.1 0 0 1 48.2 5.255 65.2 65.2 0 0 0 13.71 1.373c.56 0 1.13-.049 1.69-.059a57.179 57.179 0 0 0 41.1-18.61 60.057 60.057 0 0 0 13.52-57.289z" fill="#71c2ff"/><path d="m150.84 445.94 2.26 49.08h30l-2.26-49.08z" fill="#64aced"/><path d="m180.84 446.94a60.019 60.019 0 0 1 -13.52-57.269c7.54-25.59 14.53-51.329 20.11-77.409l6.521-30.51-.781-20.6-27.14 10.614.03.115-8.63 40.378c-5.58 26.08-12.57 51.819-20.11 77.409a60.019 60.019 0 0 0 13.52 57.269 57.158 57.158 0 0 0 41.1 18.59c.56.01 1.13.02 1.69.02a65.2 65.2 0 0 0 13.71-1.3c.665-.143 1.333-.267 2-.4a57.053 57.053 0 0 1 -28.5-16.907z" fill="#9fdaff"/><path d="m294.8 442.183a6.046 6.046 0 0 1 -1.267-.135 177.625 177.625 0 0 0 -37.167-4.179h-.738a177.625 177.625 0 0 0 -37.167 4.179 6 6 0 0 1 -2.523-11.733 189.688 189.688 0 0 1 39.69-4.446h.738a189.688 189.688 0 0 1 39.69 4.446 6 6 0 0 1 -1.256 11.868z" fill="#58a6d6"/><path d="m177.723 443.794a5.975 5.975 0 0 1 -2.774-.684 40.576 40.576 0 0 1 -13.865-12.031 42 42 0 0 1 -6.5-36.327c2.081-7.066 4.052-13.922 5.859-20.377a6 6 0 0 1 11.557 3.234c-1.822 6.507-3.808 13.415-5.9 20.533a29.932 29.932 0 0 0 4.686 25.874 28.52 28.52 0 0 0 9.722 8.46 6 6 0 0 1 -2.784 11.318z" fill="#f4f8fc"/><path d="m170.993 364.5a6.007 6.007 0 0 1 -5.805-7.534q.768-2.911 1.5-5.758a6 6 0 1 1 11.619 3q-.744 2.88-1.521 5.822a6 6 0 0 1 -5.793 4.47z" fill="#f4f8fc"/></svg>