<svg id="Layer_1" height="512" viewBox="0 0 512 512" width="512" xmlns="http://www.w3.org/2000/svg" data-name="Layer 1"><path d="m287 82v28.44l24-.1v-28.34z" fill="#4689d3"/><path d="m457.21 429.89a17.268 17.268 0 1 1 -27.6 20.76l-24.32-32.7-.11-.15a173.592 173.592 0 0 0 25-23.47z" fill="#5fa8ed"/><path d="m194.2 417.8-.11.15-23.48 32.32a17.26 17.26 0 1 1 -27.81-20.45l26.4-35.47a174.539 174.539 0 0 0 25 23.45z" fill="#5fa8ed"/><path d="m311 107.34q-5.61-.36-11.31-.36c-4.27 0-8.5.385-12.69.695a172.849 172.849 0 0 0 -159.91 157.325l.57 36.655a172.293 172.293 0 0 0 41.54 92.812 173.346 173.346 0 1 0 141.8-287.127z" fill="#fb6771"/><path d="m299.69 144.52a135.8 135.8 0 0 0 -134.87 120.01l.74 36.89a135.777 135.777 0 1 0 134.13-156.9z" fill="#a0eaea"/><path d="m195.56 301.42-.74-36.89a135.827 135.827 0 0 1 119.866-119.182 137.275 137.275 0 0 0 -15-.828 135.8 135.8 0 0 0 -134.866 120.01l.74 36.89a135.8 135.8 0 0 0 134.13 114.64 137.305 137.305 0 0 0 14.984-.827 135.841 135.841 0 0 1 -119.114-113.813z" fill="#8cd3d1"/><path d="m475.03 100.15c26.63 26.62 26.63 70.55 0 98.06l-98.06-98.06a69.354 69.354 0 0 1 98.06 0z" fill="#5fa8ed"/><path d="m222.35 100.15-98.07 98.06a69.342 69.342 0 0 1 98.07-98.06z" fill="#5fa8ed"/><path d="m323.74 54h-48.49a11.543 11.543 0 0 0 -11.25 11.33v16.67h71v-16.67a11.559 11.559 0 0 0 -11.26-11.33z" fill="#5fa8ed"/><path d="m79.81 221.94a19.354 19.354 0 0 0 -33.04 13.69v94.69a19.355 19.355 0 1 0 38.71 0v-94.69a19.3 19.3 0 0 0 -5.67-13.69z" fill="#59597a"/><path d="m221.02 216.27a19.359 19.359 0 0 0 -19.36 19.36v94.69a19.355 19.355 0 1 0 38.71 0v-94.69a19.354 19.354 0 0 0 -19.35-19.36z" fill="#59597a"/><path d="m270.13 254.36v57.23a14.958 14.958 0 0 1 -29.76 2.18v-61.59a14.958 14.958 0 0 1 29.76 2.18z" fill="#6d6d93"/><path d="m85.91 264.53h-.43v36.89h.43 115.75v-36.89z" fill="#b0b5ca"/><path d="m46.77 252.25v61.47a14.96 14.96 0 0 1 -29.77-2.13v-57.23a14.959 14.959 0 0 1 29.77-2.11z" fill="#6d6d93"/><g id="_Path_6" data-name=" Path 6"><path d="m298.489 356.024a6 6 0 0 1 -6-5.913l-.824-57.018a6 6 0 0 1 1.7-4.27l52.781-54.271a6 6 0 0 1 8.6 8.366l-51.046 52.488.788 54.532a6 6 0 0 1 -5.912 6.086z" fill="#fb6771"/></g><g id="_Path_" fill="#f4f8fc" data-name=" Path "><path d="m345.577 202.83a5.978 5.978 0 0 1 -2.344-.48c-1.8-.765-3.65-1.475-5.5-2.111a6 6 0 0 1 3.905-11.347c2.113.727 4.228 1.539 6.288 2.414a6 6 0 0 1 -2.35 11.524z"/><path d="m377.732 346.728a6 6 0 0 1 -4.464-10.006 84.5 84.5 0 0 0 -11.4-123.462 6 6 0 1 1 7.332-9.5 96.5 96.5 0 0 1 13 140.973 5.981 5.981 0 0 1 -4.468 1.995z"/></g><g fill="#6dafac"><path d="m293.692 162.258a6 6 0 1 0 12 0v-15.77a5.986 5.986 0 0 0 -.29-1.84c-1.895-.078-3.8-.128-5.712-.128s-3.813.046-5.706.125a5.976 5.976 0 0 0 -.292 1.843z"/><path d="m305.692 398.316a6 6 0 0 0 -12 0v15.769a5.97 5.97 0 0 0 .3 1.852c1.892.078 3.792.123 5.7.123s3.815-.05 5.71-.128a6 6 0 0 0 .292-1.847z"/><path d="m417.723 274.287a6 6 0 0 0 0 12h15.769a5.986 5.986 0 0 0 1.84-.29c.078-1.893.128-3.794.128-5.707s-.05-3.817-.128-5.713a5.986 5.986 0 0 0 -1.84-.29z"/><path d="m378.91 192.585a6 6 0 1 0 8.485 8.485l11.15-11.15a5.938 5.938 0 0 0 1.079-1.531q-3.847-4.182-8.033-8.033a5.909 5.909 0 0 0 -1.53 1.079z"/><path d="m220.475 367.989a6 6 0 0 0 -8.486-8.486l-11.151 11.151a5.955 5.955 0 0 0 -1.079 1.531q3.849 4.182 8.034 8.033a5.934 5.934 0 0 0 1.531-1.078z"/><path d="m387.4 359.5a6 6 0 0 0 -8.487 8.486l11.147 11.154a5.926 5.926 0 0 0 1.532 1.079q4.182-3.848 8.033-8.033a5.96 5.96 0 0 0 -1.079-1.532z"/><path d="m211.989 201.07a6 6 0 0 0 8.486-8.485l-11.151-11.15a5.955 5.955 0 0 0 -1.531-1.079q-4.182 3.847-8.034 8.032a5.942 5.942 0 0 0 1.079 1.532z"/></g></svg>